<?xml version="1.0" encoding="UTF-8" standalone="no"?>
<!DOCTYPE svg PUBLIC "-//W3C//DTD SVG 1.1//EN" "http://www.w3.org/Graphics/SVG/1.1/DTD/svg11.dtd">
<svg xmlns="http://www.w3.org/2000/svg" xmlns:xlink="http://www.w3.org/1999/xlink" version="1.1" width="926pt" height="500pt" viewBox="0 0 926 500">
<g enable-background="new">

<path transform="matrix(1,0,0,-1,0,500)" d="M 95.9 135.044 C 96.088 134.76 96.372 134.76 96.277 135.044 C 96.088 135.989 96.372 136.744 97.125 137.12 C 97.504 137.31 97.411 137.404 97.125 137.31 C 96.654 137.215 96.183 136.931 95.994 136.462 C 95.711 135.989 95.711 135.515 95.9 135.044 " fill="#4a4e52" fill-rule="evenodd"/>
<path transform="matrix(1,0,0,-1,0,500)" d="M 98.353 136.555 L 98.353 136.555 C 98.447 136.462 98.447 136.271 98.353 136.177 L 97.032 134.76 C 96.937 134.665 96.748 134.665 96.654 134.76 C 96.56 134.949 96.56 135.044 96.654 135.23 L 97.976 136.555 C 98.07 136.649 98.26 136.649 98.353 136.555 " fill="#252a2c" fill-rule="evenodd"/>
<path transform="matrix(1,0,0,-1,0,500)" d="M 98.353 134.76 L 98.353 134.76 C 98.26 134.665 98.07 134.665 97.976 134.76 L 96.654 136.177 C 96.56 136.271 96.56 136.462 96.654 136.555 C 96.748 136.649 96.937 136.649 97.032 136.555 L 98.353 135.23 C 98.447 135.044 98.447 134.949 98.353 134.76 " fill="#252a2c" fill-rule="evenodd"/>
<path transform="matrix(1,0,0,-1,0,500)" d="M 231.003 435.743 L 231.003 435.743 C 259.316 435.743 282.537 412.526 282.537 384.211 L 282.537 115.79 C 282.537 87.381 259.316 64.256 231.003 64.256 C 202.594 64.256 179.47 87.381 179.47 115.79 L 179.47 384.211 C 179.47 412.526 202.594 435.743 231.003 435.743 " fill="#d03f72" fill-rule="evenodd"/>
<path transform="matrix(1,0,0,-1,0,500)" d="M 226.473 428.665 L 226.473 428.665 C 250.257 428.665 269.699 409.222 269.699 385.439 L 269.699 124.284 C 269.699 100.501 250.257 81.059 226.473 81.059 C 202.688 81.059 183.246 100.501 183.246 124.284 L 183.246 385.439 C 183.246 409.222 202.688 428.665 226.473 428.665 " fill="#ff70a1" fill-rule="evenodd"/>
<path transform="matrix(1,0,0,-1,0,500)" d="M 217.79 368.167 L 244.217 368.167 C 246.104 368.167 247.709 366.562 247.709 364.674 L 247.709 332.773 C 247.709 330.886 246.104 329.282 244.217 329.282 L 217.79 329.282 C 215.808 329.282 214.298 330.886 214.298 332.773 L 214.298 364.674 C 214.298 366.562 215.808 368.167 217.79 368.167 " fill="#9ea3a5" fill-rule="evenodd"/>
<path transform="matrix(1,0,0,-1,0,500)" d="M 193.816 361.938 L 268.095 361.938 L 268.095 350.8 L 193.816 350.8 Z " fill="#c7cdce"/>
<path transform="matrix(1,0,0,-1,0,500)" d="M 184.378 359.767 L 196.743 359.767 C 197.875 359.767 198.913 358.824 198.913 357.69 L 198.913 355.049 C 198.913 353.915 197.875 352.971 196.743 352.971 L 184.378 352.971 C 183.246 352.971 182.303 353.915 182.303 355.049 L 182.303 357.69 C 182.303 358.824 183.246 359.767 184.378 359.767 " fill="#c7cdce" fill-rule="evenodd"/>
<path transform="matrix(1,0,0,-1,0,500)" d="M 218.261 331.358 C 219.583 331.358 220.526 332.303 220.526 333.528 C 220.526 334.755 219.583 335.794 218.261 335.794 C 217.034 335.794 216.092 334.755 216.092 333.528 C 216.092 332.303 217.034 331.358 218.261 331.358 " fill="#8e9496" fill-rule="evenodd"/>
<path transform="matrix(1,0,0,-1,0,500)" d="M 218.356 335.416 C 219.206 335.416 220.809 331.641 218.356 331.641 C 217.319 331.641 216.468 332.491 216.468 333.528 C 216.468 334.567 217.319 335.416 218.356 335.416 " fill="#c7cdce" fill-rule="evenodd"/>
<path transform="matrix(1,0,0,-1,0,500)" d="M 216.751 332.868 C 216.845 332.585 217.128 332.68 217.128 332.962 C 216.94 333.907 217.223 334.567 217.979 335.039 C 218.261 335.228 218.261 335.228 217.979 335.228 C 217.413 335.132 217.034 334.755 216.751 334.379 C 216.563 333.907 216.563 333.34 216.751 332.868 " fill="#ffffff" fill-rule="evenodd"/>
<path transform="matrix(1,0,0,-1,0,500)" d="M 219.206 334.379 L 219.206 334.379 C 219.301 334.284 219.301 334.096 219.206 334.001 L 217.79 332.68 C 217.696 332.585 217.507 332.585 217.413 332.68 C 217.319 332.773 217.319 332.962 217.413 333.057 L 218.827 334.379 C 218.921 334.567 219.111 334.567 219.206 334.379 " fill="#6b7070" fill-rule="evenodd"/>
<path transform="matrix(1,0,0,-1,0,500)" d="M 219.206 332.68 L 219.206 332.68 C 219.111 332.585 218.921 332.585 218.827 332.68 L 217.413 334.001 C 217.319 334.096 217.319 334.284 217.413 334.379 C 217.507 334.567 217.696 334.567 217.79 334.379 L 219.206 333.057 C 219.301 332.962 219.301 332.773 219.206 332.68 " fill="#6b7070" fill-rule="evenodd"/>
<path transform="matrix(1,0,0,-1,0,500)" d="M 243.84 331.358 C 245.065 331.358 246.01 332.303 246.01 333.528 C 246.01 334.755 245.065 335.794 243.84 335.794 C 242.612 335.794 241.573 334.755 241.573 333.528 C 241.573 332.303 242.612 331.358 243.84 331.358 " fill="#8e9496" fill-rule="evenodd"/>
<path transform="matrix(1,0,0,-1,0,500)" d="M 243.84 335.416 C 244.688 335.416 246.293 331.641 243.84 331.641 C 242.801 331.641 241.951 332.491 241.951 333.528 C 241.951 334.567 242.801 335.416 243.84 335.416 " fill="#c7cdce" fill-rule="evenodd"/>
<path transform="matrix(1,0,0,-1,0,500)" d="M 242.235 332.868 C 242.329 332.585 242.612 332.68 242.612 332.962 C 242.423 333.907 242.706 334.567 243.461 335.039 C 243.746 335.228 243.746 335.228 243.461 335.228 C 242.896 335.132 242.518 334.755 242.329 334.379 C 242.047 333.907 242.047 333.34 242.235 332.868 " fill="#ffffff" fill-rule="evenodd"/>
<path transform="matrix(1,0,0,-1,0,500)" d="M 244.688 334.379 L 244.688 334.379 C 244.782 334.284 244.782 334.096 244.688 334.001 L 243.366 332.68 C 243.178 332.585 242.989 332.585 242.896 332.68 C 242.801 332.773 242.801 332.962 242.896 333.057 L 244.311 334.379 C 244.406 334.567 244.594 334.567 244.688 334.379 " fill="#6b7070" fill-rule="evenodd"/>
<path transform="matrix(1,0,0,-1,0,500)" d="M 244.688 332.68 L 244.688 332.68 C 244.594 332.585 244.406 332.585 244.311 332.68 L 242.896 334.001 C 242.801 334.096 242.801 334.284 242.896 334.379 C 242.989 334.567 243.178 334.567 243.366 334.379 L 244.688 333.057 C 244.782 332.962 244.782 332.773 244.688 332.68 " fill="#6b7070" fill-rule="evenodd"/>
<path transform="matrix(1,0,0,-1,0,500)" d="M 231.003 350.989 C 215.052 350.895 207.125 350.8 207.125 350.8 C 210.522 349.29 219.206 346.175 220.809 342.873 C 223.358 337.871 227.039 335.228 231.003 335.228 C 231.003 345.703 231.003 350.989 231.003 350.989 " fill="#c7cdce" fill-rule="evenodd"/>
<path transform="matrix(1,0,0,-1,0,500)" d="M 193.816 352.216 L 268.095 352.216 L 268.095 350.80003 L 193.816 350.80003 Z " fill="#9ea3a5"/>
<path transform="matrix(1,0,0,-1,0,500)" d="M 207.125 360.522 L 254.126 360.522 C 255.165 360.522 256.013 359.672 256.013 358.635 L 256.013 357.501 C 256.013 356.463 255.165 355.614 254.126 355.614 L 207.125 355.614 C 205.992 355.614 205.144 356.463 205.144 357.501 L 205.144 358.635 C 205.144 359.672 205.992 360.522 207.125 360.522 " fill="#dee2e3" fill-rule="evenodd"/>
<path transform="matrix(1,0,0,-1,0,500)" d="M 207.031 359.86 L 251.202 359.86 C 251.579 359.86 251.861 359.578 251.861 359.201 L 251.861 358.729 C 251.861 358.35 251.579 358.067 251.202 358.067 L 207.031 358.067 C 206.557 358.067 206.275 358.35 206.275 358.729 L 206.275 359.201 C 206.275 359.578 206.557 359.86 207.031 359.86 " fill="#ffffff" fill-rule="evenodd"/>
<path transform="matrix(1,0,0,-1,0,500)" d="M 231.003 350.989 C 246.858 350.895 254.882 350.8 254.882 350.8 C 251.484 349.29 242.706 346.175 241.197 342.873 C 238.555 337.871 234.872 335.228 231.003 335.228 C 231.003 345.703 231.003 350.989 231.003 350.989 " fill="#c7cdce" fill-rule="evenodd"/>
<path transform="matrix(1,0,0,-1,0,500)" d="M 231.003 356.369 C 245.727 356.369 240.724 336.455 231.003 336.455 C 221 336.455 216.092 356.369 231.003 356.369 " fill="#92999b" fill-rule="evenodd"/>
<path transform="matrix(1,0,0,-1,0,500)" d="M 231.003 337.398 C 234.589 337.398 237.515 340.135 237.515 343.533 C 237.515 346.836 234.589 349.573 231.003 349.573 C 227.416 349.573 224.396 346.836 224.396 343.533 C 224.396 340.135 227.416 337.398 231.003 337.398 " fill="#6b7070" fill-rule="evenodd"/>
<path transform="matrix(1,0,0,-1,0,500)" d="M 231.003 337.965 C 234.307 337.965 236.95 340.418 236.95 343.533 C 236.95 346.554 234.307 349.007 231.003 349.007 C 227.699 349.007 224.963 346.554 224.963 343.533 C 224.963 340.418 227.699 337.965 231.003 337.965 " fill="#c7cdce" fill-rule="evenodd"/>
<path transform="matrix(1,0,0,-1,0,500)" d="M 231.003 342.494 C 232.23 342.494 233.175 343.533 233.175 344.76 C 233.175 345.987 232.23 346.931 231.003 346.931 C 229.777 346.931 228.738 345.987 228.738 344.76 C 228.738 343.533 229.777 342.494 231.003 342.494 " fill="#92999b" fill-rule="evenodd"/>
<path transform="matrix(1,0,0,-1,0,500)" d="M 231.003 346.648 C 231.853 346.648 233.458 342.873 231.003 342.873 C 229.965 342.873 229.115 343.722 229.115 344.76 C 229.115 345.798 229.965 346.648 231.003 346.648 " fill="#c7cdce" fill-rule="evenodd"/>
<path transform="matrix(1,0,0,-1,0,500)" d="M 229.398 344.099 C 229.588 343.816 229.871 343.816 229.777 344.099 C 229.588 345.043 229.871 345.798 230.625 346.175 C 230.908 346.365 230.908 346.459 230.625 346.365 C 230.154 346.271 229.683 345.987 229.492 345.515 C 229.209 345.043 229.209 344.572 229.398 344.099 " fill="#ffffff" fill-rule="evenodd"/>
<path transform="matrix(1,0,0,-1,0,500)" d="M 231.853 345.61 L 231.853 345.61 C 231.947 345.515 231.947 345.327 231.853 345.232 L 230.531 343.91 C 230.437 343.722 230.249 343.722 230.154 343.91 C 229.965 344.005 229.965 344.193 230.154 344.29 L 231.476 345.61 C 231.57 345.703 231.759 345.703 231.853 345.61 " fill="#6b7070" fill-rule="evenodd"/>
<path transform="matrix(1,0,0,-1,0,500)" d="M 231.853 343.91 L 231.853 343.91 C 231.759 343.722 231.57 343.722 231.476 343.91 L 230.154 345.232 C 229.965 345.327 229.965 345.515 230.154 345.61 C 230.249 345.703 230.437 345.703 230.531 345.61 L 231.853 344.29 C 231.947 344.193 231.947 344.005 231.853 343.91 " fill="#6b7070" fill-rule="evenodd"/>
<path transform="matrix(1,0,0,-1,0,500)" d="M 232.607 350.423 C 235.911 349.952 236.193 354.198 233.175 355.237 C 227.699 356.936 221.942 353.349 222.037 346.931 C 222.13 345.61 222.414 344.478 222.792 343.344 C 223.641 341.363 223.924 341.363 223.736 343.533 C 223.736 345.327 224.492 346.931 225.623 348.158 C 227.699 350.046 229.965 350.612 232.607 350.423 " fill="#6b7070" fill-rule="evenodd"/>
<path transform="matrix(1,0,0,-1,0,500)" d="M 238.27 343.816 C 238.176 342.683 238.364 342.683 238.932 343.627 C 240.253 346.836 240.063 349.667 238.46 352.027 C 237.61 353.064 235.911 351.462 237.044 349.667 C 238.081 347.779 238.46 345.798 238.27 343.816 " fill="#dee2e3" fill-rule="evenodd"/>
<path transform="matrix(1,0,0,-1,0,500)" d="M 184.567 359.106 L 194.099 359.106 C 194.95 359.106 195.704 358.446 195.704 357.501 L 195.704 355.52 C 195.704 354.669 194.95 353.915 194.099 353.915 L 184.567 353.915 C 183.718 353.915 182.963 354.669 182.963 355.52 L 182.963 357.501 C 182.963 358.446 183.718 359.106 184.567 359.106 " fill="#dee2e3" fill-rule="evenodd"/>
<path transform="matrix(1,0,0,-1,0,500)" d="M 191.458 372.414 L 197.497 372.414 C 200.989 372.414 203.822 369.583 203.822 366.09 L 203.822 346.648 C 203.822 343.156 200.989 340.23 197.497 340.23 L 191.458 340.23 C 187.965 340.23 185.039 343.156 185.039 346.648 L 185.039 366.09 C 185.039 369.583 187.965 372.414 191.458 372.414 " fill="#2c3236" fill-rule="evenodd"/>
<path transform="matrix(1,0,0,-1,0,500)" d="M 190.701 371.093 L 195.232 371.093 C 197.78 371.093 199.952 368.921 199.952 366.373 L 199.952 348.064 C 199.952 345.42 197.78 343.344 195.232 343.344 L 190.701 343.344 C 188.154 343.344 185.983 345.42 185.983 348.064 L 185.983 366.373 C 185.983 368.921 188.154 371.093 190.701 371.093 " fill="#353c41" fill-rule="evenodd"/>
<path transform="matrix(1,0,0,-1,0,500)" d="M 187.965 345.798 C 187.115 346.554 186.643 347.685 186.643 348.913 L 186.643 365.431 C 186.643 367.128 187.683 368.544 189.099 369.299 C 190.136 369.866 190.418 368.261 190.418 366.468 L 190.418 349.29 C 190.418 347.119 190.136 343.91 187.965 345.798 " fill="#4a4e52" fill-rule="evenodd"/>
<path transform="matrix(1,0,0,-1,0,500)" d="M 218.261 362.222 C 219.583 362.222 220.526 363.259 220.526 364.486 C 220.526 365.713 219.583 366.656 218.261 366.656 C 217.034 366.656 216.092 365.713 216.092 364.486 C 216.092 363.259 217.034 362.222 218.261 362.222 " fill="#8e9496" fill-rule="evenodd"/>
<path transform="matrix(1,0,0,-1,0,500)" d="M 218.356 366.373 C 219.206 366.373 220.809 362.599 218.356 362.599 C 217.319 362.599 216.468 363.447 216.468 364.486 C 216.468 365.525 217.319 366.373 218.356 366.373 " fill="#c7cdce" fill-rule="evenodd"/>
<path transform="matrix(1,0,0,-1,0,500)" d="M 216.751 363.824 C 216.845 363.542 217.128 363.542 217.128 363.824 C 216.94 364.769 217.223 365.525 217.979 365.902 C 218.261 366.09 218.261 366.186 217.979 366.09 C 217.413 365.997 217.034 365.713 216.751 365.241 C 216.563 364.769 216.563 364.297 216.751 363.824 " fill="#ffffff" fill-rule="evenodd"/>
<path transform="matrix(1,0,0,-1,0,500)" d="M 219.206 365.334 L 219.206 365.334 C 219.301 365.241 219.301 365.052 219.206 364.958 L 217.79 363.542 C 217.696 363.447 217.507 363.447 217.413 363.542 C 217.319 363.73 217.319 363.824 217.413 364.014 L 218.827 365.334 C 218.921 365.431 219.111 365.431 219.206 365.334 " fill="#6b7070" fill-rule="evenodd"/>
<path transform="matrix(1,0,0,-1,0,500)" d="M 219.206 363.542 L 219.206 363.542 C 219.111 363.447 218.921 363.447 218.827 363.542 L 217.413 364.958 C 217.319 365.052 217.319 365.241 217.413 365.334 C 217.507 365.431 217.696 365.431 217.79 365.334 L 219.206 364.014 C 219.301 363.824 219.301 363.73 219.206 363.542 " fill="#6b7070" fill-rule="evenodd"/>
<path transform="matrix(1,0,0,-1,0,500)" d="M 243.84 362.222 C 245.065 362.222 246.01 363.259 246.01 364.486 C 246.01 365.713 245.065 366.656 243.84 366.656 C 242.612 366.656 241.573 365.713 241.573 364.486 C 241.573 363.259 242.612 362.222 243.84 362.222 " fill="#8e9496" fill-rule="evenodd"/>
<path transform="matrix(1,0,0,-1,0,500)" d="M 243.84 366.373 C 244.688 366.373 246.293 362.599 243.84 362.599 C 242.801 362.599 241.951 363.447 241.951 364.486 C 241.951 365.525 242.801 366.373 243.84 366.373 " fill="#c7cdce" fill-rule="evenodd"/>
<path transform="matrix(1,0,0,-1,0,500)" d="M 242.235 363.824 C 242.329 363.542 242.612 363.542 242.612 363.824 C 242.423 364.769 242.706 365.525 243.461 365.902 C 243.746 366.09 243.746 366.186 243.461 366.09 C 242.896 365.997 242.518 365.713 242.329 365.241 C 242.047 364.769 242.047 364.297 242.235 363.824 " fill="#ffffff" fill-rule="evenodd"/>
<path transform="matrix(1,0,0,-1,0,500)" d="M 244.688 365.334 L 244.688 365.334 C 244.782 365.241 244.782 365.052 244.688 364.958 L 243.366 363.542 C 243.178 363.447 242.989 363.447 242.896 363.542 C 242.801 363.73 242.801 363.824 242.896 364.014 L 244.311 365.334 C 244.406 365.431 244.594 365.431 244.688 365.334 " fill="#6b7070" fill-rule="evenodd"/>
<path transform="matrix(1,0,0,-1,0,500)" d="M 244.688 363.542 L 244.688 363.542 C 244.594 363.447 244.406 363.447 244.311 363.542 L 242.896 364.958 C 242.801 365.052 242.801 365.241 242.896 365.334 C 242.989 365.431 243.178 365.431 243.366 365.334 L 244.688 364.014 C 244.782 363.824 244.782 363.73 244.688 363.542 " fill="#6b7070" fill-rule="evenodd"/>
<path transform="matrix(1,0,0,-1,0,500)" d="M 227.322 335.228 C 226.851 335.321 226.473 334.85 226.379 334.379 L 225.152 329.282 L 236.761 329.282 L 235.628 334.379 C 235.534 334.85 235.156 335.321 234.589 335.228 C 230.908 334.567 231.003 334.567 227.322 335.228 " fill="#b1b4b6" fill-rule="evenodd"/>
<path transform="matrix(1,0,0,-1,0,500)" d="M 277.439 359.767 L 265.076 359.767 C 263.942 359.767 262.998 358.824 262.998 357.69 L 262.998 355.049 C 262.998 353.915 263.942 352.971 265.076 352.971 L 277.439 352.971 C 278.571 352.971 279.515 353.915 279.515 355.049 L 279.515 357.69 C 279.515 358.824 278.571 359.767 277.439 359.767 " fill="#c7cdce" fill-rule="evenodd"/>
<path transform="matrix(1,0,0,-1,0,500)" d="M 277.251 359.106 L 267.717 359.106 C 266.869 359.106 266.112 358.446 266.112 357.501 L 266.112 355.52 C 266.112 354.669 266.869 353.915 267.717 353.915 L 277.251 353.915 C 278.1 353.915 278.854 354.669 278.854 355.52 L 278.854 357.501 C 278.854 358.446 278.1 359.106 277.251 359.106 " fill="#dee2e3" fill-rule="evenodd"/>
<path transform="matrix(1,0,0,-1,0,500)" d="M 270.361 372.414 L 264.319 372.414 C 260.827 372.414 257.997 369.583 257.997 366.09 L 257.997 346.648 C 257.997 343.156 260.827 340.23 264.319 340.23 L 270.361 340.23 C 273.947 340.23 276.778 343.156 276.778 346.648 L 276.778 366.09 C 276.778 369.583 273.947 372.414 270.361 372.414 " fill="#2c3236" fill-rule="evenodd"/>
<path transform="matrix(1,0,0,-1,0,500)" d="M 263.565 371.093 L 268 371.093 C 270.644 371.093 272.72 368.921 272.72 366.373 L 272.72 348.064 C 272.72 345.42 270.644 343.344 268 343.344 L 263.565 343.344 C 260.921 343.344 258.846 345.42 258.846 348.064 L 258.846 366.373 C 258.846 368.921 260.921 371.093 263.565 371.093 " fill="#353c41" fill-rule="evenodd"/>
<path transform="matrix(1,0,0,-1,0,500)" d="M 260.827 345.798 C 259.979 346.554 259.506 347.685 259.506 348.913 L 259.506 365.431 C 259.506 367.128 260.544 368.544 261.867 369.299 C 262.903 369.866 263.282 368.261 263.282 366.468 L 263.282 349.29 C 263.282 347.119 262.903 343.91 260.827 345.798 " fill="#4a4e52" fill-rule="evenodd"/>
<path transform="matrix(1,0,0,-1,0,500)" d="M 217.79 132.021 L 244.217 132.021 C 246.104 132.021 247.709 133.534 247.709 135.515 L 247.709 167.322 C 247.709 169.305 246.104 170.813 244.217 170.813 L 217.79 170.813 C 215.808 170.813 214.298 169.305 214.298 167.322 L 214.298 135.515 C 214.298 133.534 215.808 132.021 217.79 132.021 " fill="#9ea3a5" fill-rule="evenodd"/>
<path transform="matrix(1,0,0,-1,0,500)" d="M 193.816 149.294 L 268.095 149.294 L 268.095 138.158 L 193.816 138.158 Z " fill="#c7cdce"/>
<path transform="matrix(1,0,0,-1,0,500)" d="M 184.378 140.33 L 196.743 140.33 C 197.875 140.33 198.913 141.273 198.913 142.499 L 198.913 145.047 C 198.913 146.182 197.875 147.125 196.743 147.125 L 184.378 147.125 C 183.246 147.125 182.303 146.182 182.303 145.047 L 182.303 142.499 C 182.303 141.273 183.246 140.33 184.378 140.33 " fill="#c7cdce" fill-rule="evenodd"/>
<path transform="matrix(1,0,0,-1,0,500)" d="M 231.003 149.105 C 215.052 149.294 207.125 149.294 207.125 149.294 C 210.522 150.9 219.206 153.923 220.809 157.225 C 223.358 162.226 227.039 164.869 231.003 164.869 C 231.003 154.394 231.003 149.105 231.003 149.105 " fill="#c7cdce" fill-rule="evenodd"/>
<path transform="matrix(1,0,0,-1,0,500)" d="M 193.816 149.294 L 268.095 149.294 L 268.095 147.88 L 193.816 147.88 Z " fill="#9ea3a5"/>
<path transform="matrix(1,0,0,-1,0,500)" d="M 207.596 140.708 L 253.561 140.708 C 254.882 140.708 256.013 141.839 256.013 143.161 L 256.013 144.575 C 256.013 145.896 254.882 147.032 253.561 147.032 L 207.596 147.032 C 206.275 147.032 205.144 145.896 205.144 144.575 L 205.144 143.161 C 205.144 141.839 206.275 140.708 207.596 140.708 " fill="#dee2e3" fill-rule="evenodd"/>
<path transform="matrix(1,0,0,-1,0,500)" d="M 207.031 143.539 L 251.202 143.539 C 251.579 143.539 251.861 143.918 251.861 144.294 L 251.861 144.672 C 251.861 145.047 251.579 145.425 251.202 145.425 L 207.031 145.425 C 206.557 145.425 206.275 145.047 206.275 144.672 L 206.275 144.294 C 206.275 143.918 206.557 143.539 207.031 143.539 " fill="#ffffff" fill-rule="evenodd"/>
<path transform="matrix(1,0,0,-1,0,500)" d="M 231.003 149.105 C 246.858 149.294 254.882 149.294 254.882 149.294 C 251.484 150.9 242.706 153.923 241.197 157.225 C 238.555 162.226 234.872 164.869 231.003 164.869 C 231.003 154.394 231.003 149.105 231.003 149.105 " fill="#c7cdce" fill-rule="evenodd"/>
<path transform="matrix(1,0,0,-1,0,500)" d="M 231.003 143.727 C 245.727 143.727 240.724 163.738 231.003 163.738 C 221 163.738 216.092 143.727 231.003 143.727 " fill="#92999b" fill-rule="evenodd"/>
<path transform="matrix(1,0,0,-1,0,500)" d="M 231.003 150.523 C 234.589 150.523 237.515 153.263 237.515 156.655 C 237.515 159.959 234.589 162.698 231.003 162.698 C 227.416 162.698 224.396 159.959 224.396 156.655 C 224.396 153.263 227.416 150.523 231.003 150.523 " fill="#6b7070" fill-rule="evenodd"/>
<path transform="matrix(1,0,0,-1,0,500)" d="M 231.003 151.089 C 234.307 151.089 236.95 153.544 236.95 156.655 C 236.95 159.676 234.307 162.131 231.003 162.131 C 227.699 162.131 224.963 159.676 224.963 156.655 C 224.963 153.544 227.699 151.089 231.003 151.089 " fill="#c7cdce" fill-rule="evenodd"/>
<path transform="matrix(1,0,0,-1,0,500)" d="M 231.003 153.164 C 232.23 153.164 233.175 154.109 233.175 155.335 C 233.175 156.562 232.23 157.604 231.003 157.604 C 229.777 157.604 228.738 156.562 228.738 155.335 C 228.738 154.109 229.777 153.164 231.003 153.164 " fill="#92999b" fill-rule="evenodd"/>
<path transform="matrix(1,0,0,-1,0,500)" d="M 231.003 153.45 C 231.853 153.45 233.458 157.225 231.003 157.225 C 229.965 157.225 229.115 156.373 229.115 155.335 C 229.115 154.299 229.965 153.45 231.003 153.45 " fill="#c7cdce" fill-rule="evenodd"/>
<path transform="matrix(1,0,0,-1,0,500)" d="M 229.398 155.995 C 229.588 156.279 229.871 156.279 229.777 155.995 C 229.588 155.054 229.871 154.299 230.625 153.923 C 230.908 153.733 230.908 153.639 230.625 153.733 C 230.154 153.826 229.683 154.109 229.492 154.58 C 229.209 155.054 229.209 155.524 229.398 155.995 " fill="#ffffff" fill-rule="evenodd"/>
<path transform="matrix(1,0,0,-1,0,500)" d="M 231.853 154.488 L 231.853 154.488 C 231.947 154.58 231.947 154.77 231.853 154.864 L 230.531 156.279 C 230.437 156.373 230.249 156.373 230.154 156.279 C 229.965 156.09 229.965 155.995 230.154 155.808 L 231.476 154.488 C 231.57 154.394 231.759 154.394 231.853 154.488 " fill="#6b7070" fill-rule="evenodd"/>
<path transform="matrix(1,0,0,-1,0,500)" d="M 231.853 156.279 L 231.853 156.279 C 231.759 156.373 231.57 156.373 231.476 156.279 L 230.154 154.864 C 229.965 154.77 229.965 154.58 230.154 154.488 C 230.249 154.394 230.437 154.394 230.531 154.488 L 231.853 155.808 C 231.947 155.995 231.947 156.09 231.853 156.279 " fill="#6b7070" fill-rule="evenodd"/>
<path transform="matrix(1,0,0,-1,0,500)" d="M 232.607 149.675 C 235.911 150.146 236.193 145.896 233.175 144.954 C 227.699 143.256 221.942 146.749 222.037 153.164 C 222.13 154.488 222.414 155.714 222.792 156.752 C 223.641 158.734 223.924 158.734 223.736 156.562 C 223.736 154.77 224.492 153.263 225.623 151.937 C 227.699 150.053 229.965 149.483 232.607 149.675 " fill="#6b7070" fill-rule="evenodd"/>
<path transform="matrix(1,0,0,-1,0,500)" d="M 238.27 156.279 C 238.176 157.414 238.364 157.507 238.932 156.468 C 240.253 153.263 240.063 150.43 238.46 148.069 C 237.61 147.125 235.911 148.635 237.044 150.43 C 238.081 152.409 238.46 154.299 238.27 156.279 " fill="#dee2e3" fill-rule="evenodd"/>
<path transform="matrix(1,0,0,-1,0,500)" d="M 184.567 140.99 L 194.099 140.99 C 194.95 140.99 195.704 141.744 195.704 142.598 L 195.704 144.575 C 195.704 145.425 194.95 146.182 194.099 146.182 L 184.567 146.182 C 183.718 146.182 182.963 145.425 182.963 144.575 L 182.963 142.598 C 182.963 141.744 183.718 140.99 184.567 140.99 " fill="#dee2e3" fill-rule="evenodd"/>
<path transform="matrix(1,0,0,-1,0,500)" d="M 191.458 127.681 L 197.497 127.681 C 200.989 127.681 203.822 130.514 203.822 134.005 L 203.822 153.45 C 203.822 156.943 200.989 159.865 197.497 159.865 L 191.458 159.865 C 187.965 159.865 185.039 156.943 185.039 153.45 L 185.039 134.005 C 185.039 130.514 187.965 127.681 191.458 127.681 " fill="#2c3236" fill-rule="evenodd"/>
<path transform="matrix(1,0,0,-1,0,500)" d="M 190.701 130.419 L 195.232 130.419 C 197.78 130.419 199.952 132.498 199.952 135.138 L 199.952 153.45 C 199.952 155.995 197.78 158.168 195.232 158.168 L 190.701 158.168 C 188.154 158.168 185.983 155.995 185.983 153.45 L 185.983 135.138 C 185.983 132.498 188.154 130.419 190.701 130.419 " fill="#353c41" fill-rule="evenodd"/>
<path transform="matrix(1,0,0,-1,0,500)" d="M 187.965 155.619 C 187.115 154.864 186.643 153.733 186.643 152.504 L 186.643 135.989 C 186.643 134.289 187.683 132.969 189.099 132.12 C 190.136 131.55 190.418 133.156 190.418 135.044 L 190.418 152.128 C 190.418 154.299 190.136 157.507 187.965 155.619 " fill="#4a4e52" fill-rule="evenodd"/>
<path transform="matrix(1,0,0,-1,0,500)" d="M 227.322 164.869 C 226.851 164.774 226.473 165.245 226.379 165.719 L 225.152 170.813 L 236.761 170.813 L 235.628 165.719 C 235.534 165.245 235.156 164.774 234.589 164.869 C 230.908 165.529 231.003 165.529 227.322 164.869 " fill="#b1b4b6" fill-rule="evenodd"/>
<path transform="matrix(1,0,0,-1,0,500)" d="M 277.439 140.33 L 265.076 140.33 C 263.942 140.33 262.998 141.273 262.998 142.499 L 262.998 145.047 C 262.998 146.182 263.942 147.125 265.076 147.125 L 277.439 147.125 C 278.571 147.125 279.515 146.182 279.515 145.047 L 279.515 142.499 C 279.515 141.273 278.571 140.33 277.439 140.33 " fill="#c7cdce" fill-rule="evenodd"/>
<path transform="matrix(1,0,0,-1,0,500)" d="M 277.251 140.99 L 267.717 140.99 C 266.869 140.99 266.112 141.744 266.112 142.598 L 266.112 144.575 C 266.112 145.425 266.869 146.182 267.717 146.182 L 277.251 146.182 C 278.1 146.182 278.854 145.425 278.854 144.575 L 278.854 142.598 C 278.854 141.744 278.1 140.99 277.251 140.99 " fill="#dee2e3" fill-rule="evenodd"/>
<path transform="matrix(1,0,0,-1,0,500)" d="M 270.361 127.681 L 264.319 127.681 C 260.827 127.681 257.997 130.514 257.997 134.005 L 257.997 153.45 C 257.997 156.943 260.827 159.865 264.319 159.865 L 270.361 159.865 C 273.947 159.865 276.778 156.943 276.778 153.45 L 276.778 134.005 C 276.778 130.514 273.947 127.681 270.361 127.681 " fill="#2c3236" fill-rule="evenodd"/>
<path transform="matrix(1,0,0,-1,0,500)" d="M 263.565 130.419 L 268 130.419 C 270.644 130.419 272.72 132.498 272.72 135.138 L 272.72 153.45 C 272.72 155.995 270.644 158.168 268 158.168 L 263.565 158.168 C 260.921 158.168 258.846 155.995 258.846 153.45 L 258.846 135.138 C 258.846 132.498 260.921 130.419 263.565 130.419 " fill="#353c41" fill-rule="evenodd"/>
<path transform="matrix(1,0,0,-1,0,500)" d="M 260.827 155.619 C 259.979 154.864 259.506 153.733 259.506 152.504 L 259.506 135.989 C 259.506 134.289 260.544 132.969 261.867 132.12 C 262.903 131.55 263.282 133.156 263.282 135.044 L 263.282 152.128 C 263.282 154.299 262.903 157.507 260.827 155.619 " fill="#4a4e52" fill-rule="evenodd"/>
<path transform="matrix(1,0,0,-1,0,500)" d="M 218.261 164.304 C 219.583 164.304 220.526 165.34 220.526 166.565 C 220.526 167.795 219.583 168.833 218.261 168.833 C 217.034 168.833 216.092 167.795 216.092 166.565 C 216.092 165.34 217.034 164.304 218.261 164.304 " fill="#8e9496" fill-rule="evenodd"/>
<path transform="matrix(1,0,0,-1,0,500)" d="M 218.356 168.455 C 219.206 168.455 220.809 164.683 218.356 164.683 C 217.319 164.683 216.468 165.529 216.468 166.565 C 216.468 167.608 217.319 168.455 218.356 168.455 " fill="#c7cdce" fill-rule="evenodd"/>
<path transform="matrix(1,0,0,-1,0,500)" d="M 216.751 165.905 C 216.845 165.624 217.128 165.624 217.128 165.905 C 216.94 166.85 217.223 167.608 217.979 167.984 C 218.261 168.174 218.261 168.266 217.979 168.174 C 217.413 168.079 217.034 167.795 216.751 167.322 C 216.563 166.944 216.563 166.379 216.751 165.905 " fill="#ffffff" fill-rule="evenodd"/>
<path transform="matrix(1,0,0,-1,0,500)" d="M 219.206 167.419 L 219.206 167.419 C 219.301 167.322 219.301 167.133 219.206 167.038 L 217.79 165.719 C 217.696 165.624 217.507 165.624 217.413 165.719 C 217.319 165.813 217.319 166.002 217.413 166.095 L 218.827 167.419 C 218.921 167.514 219.111 167.514 219.206 167.419 " fill="#6b7070" fill-rule="evenodd"/>
<path transform="matrix(1,0,0,-1,0,500)" d="M 219.206 165.719 L 219.206 165.719 C 219.111 165.624 218.921 165.624 218.827 165.719 L 217.413 167.038 C 217.319 167.133 217.319 167.322 217.413 167.419 C 217.507 167.514 217.696 167.514 217.79 167.419 L 219.206 166.095 C 219.301 166.002 219.301 165.813 219.206 165.719 " fill="#6b7070" fill-rule="evenodd"/>
<path transform="matrix(1,0,0,-1,0,500)" d="M 243.84 164.304 C 245.065 164.304 246.104 165.34 246.104 166.565 C 246.104 167.795 245.065 168.833 243.84 168.833 C 242.612 168.833 241.573 167.795 241.573 166.565 C 241.573 165.34 242.612 164.304 243.84 164.304 " fill="#8e9496" fill-rule="evenodd"/>
<path transform="matrix(1,0,0,-1,0,500)" d="M 243.84 168.455 C 244.688 168.455 246.387 164.683 243.84 164.683 C 242.801 164.683 241.951 165.529 241.951 166.565 C 241.951 167.608 242.801 168.455 243.84 168.455 " fill="#c7cdce" fill-rule="evenodd"/>
<path transform="matrix(1,0,0,-1,0,500)" d="M 242.235 165.905 C 242.423 165.624 242.706 165.624 242.612 165.905 C 242.423 166.85 242.706 167.608 243.461 167.984 C 243.84 168.174 243.746 168.266 243.461 168.174 C 242.989 168.079 242.518 167.795 242.329 167.322 C 242.047 166.944 242.047 166.379 242.235 165.905 " fill="#ffffff" fill-rule="evenodd"/>
</g>
</svg>
