<svg xmlns="http://www.w3.org/2000/svg" viewBox="0 0 926 500"><clipPath id="a"><path transform="matrix(1 0 0 -1 0 500)" d="M.06 500h925.87V0H.06z"/></clipPath><g clip-path="url(#a)"><path d="M.06 0h925.87v500H.06z" fill="#fff"/></g><path d="M110.15 64.26c28.41 0 51.53 23.21 51.53 51.53V384.2a51.6 51.6 0 01-51.53 51.53c-28.31 0-51.53-23.12-51.53-51.53V115.79c0-28.32 23.22-51.53 51.53-51.53" fill="#2c3236" fill-rule="evenodd"/><path d="M105.71 71.33a43.34 43.34 0 0143.23 43.23v261.16a43.34 43.34 0 01-43.23 43.22 43.34 43.34 0 01-43.22-43.22V114.56a43.34 43.34 0 0143.22-43.23" fill="#353c41" fill-rule="evenodd"/><path d="M122.99 137.78a2.3 2.3 0 002.26-2.27 2.21 2.21 0 00-2.26-2.17c-1.23 0-2.27.95-2.27 2.17a2.3 2.3 0 002.27 2.27" fill="#252a2c" fill-rule="evenodd"/><path d="M122.99 133.63c.85 0 2.54 3.77 0 3.77a1.9 1.9 0 010-3.77" fill="#34393e" fill-rule="evenodd"/><path d="M121.38 136.18c.2.28.47.28.38 0-.19-.95.1-1.7.94-2.08.29-.19.29-.29-.1-.19-.46.1-.93.38-1.12.85-.29.47-.29.94-.1 1.42" fill="#4a4e52" fill-rule="evenodd"/><path d="M123.84 134.67c.1.09.1.28 0 .37l-1.33 1.42c-.09.1-.28.1-.37 0-.1-.19-.1-.28 0-.47l1.32-1.32c.1-.1.28-.1.38 0" fill="#252a2c" fill-rule="evenodd"/><path d="M123.84 136.46c-.1.1-.29.1-.38 0l-1.32-1.42c-.1-.1-.1-.28 0-.37.1-.1.28-.1.38 0l1.32 1.32c.1.19.1.28 0 .47M97.5 137.78a2.3 2.3 0 002.27-2.27 2.22 2.22 0 00-2.27-2.17c-1.22 0-2.26.95-2.26 2.17a2.3 2.3 0 002.26 2.27" fill="#252a2c" fill-rule="evenodd"/><path d="M97.5 133.63c.85 0 2.55 3.77 0 3.77a1.9 1.9 0 010-3.77" fill="#34393e" fill-rule="evenodd"/><path d="M95.9 136.18c.19.28.47.28.38 0-.2-.95.1-1.7.84-2.08.38-.19.3-.29 0-.19-.47.1-.94.38-1.13.85-.28.47-.28.94-.09 1.42" fill="#4a4e52" fill-rule="evenodd"/><path d="M98.35 134.67c.1.09.1.28 0 .37l-1.32 1.42c-.1.1-.28.1-.38 0-.09-.19-.09-.28 0-.47l1.33-1.32c.09-.1.28-.1.37 0" fill="#252a2c" fill-rule="evenodd"/><path d="M98.35 136.46c-.09.1-.28.1-.37 0l-1.33-1.42c-.09-.1-.09-.28 0-.37.1-.1.29-.1.38 0l1.32 1.32c.1.19.1.28 0 .47M122.99 168.64c1.22 0 2.26-.94 2.26-2.17a2.3 2.3 0 00-2.26-2.26 2.3 2.3 0 00-2.27 2.26 2.22 2.22 0 002.27 2.17" fill="#252a2c" fill-rule="evenodd"/><path d="M122.99 164.58c.85 0 2.54 3.78 0 3.78a1.9 1.9 0 010-3.77" fill="#34393e" fill-rule="evenodd"/><path d="M121.38 167.13c.2.29.47.19.38-.1-.19-.94.1-1.6.94-2.07.29-.19.29-.19-.1-.19-.46.1-.93.47-1.12.85a1.7 1.7 0 00-.1 1.51" fill="#4a4e52" fill-rule="evenodd"/><path d="M123.84 165.62c.1.1.1.28 0 .38l-1.33 1.32c-.09.1-.28.1-.37 0-.1-.1-.1-.28 0-.38l1.32-1.32c.1-.19.28-.19.38 0" fill="#252a2c" fill-rule="evenodd"/><path d="M123.84 167.32c-.1.1-.29.1-.38 0l-1.32-1.32a.28.28 0 010-.38c.1-.19.28-.19.38 0l1.32 1.32c.1.1.1.29 0 .38M97.5 168.64c1.23 0 2.27-.94 2.27-2.17a2.3 2.3 0 00-2.27-2.26 2.3 2.3 0 00-2.26 2.26 2.22 2.22 0 002.26 2.17" fill="#252a2c" fill-rule="evenodd"/><path d="M97.5 164.58c.85 0 2.55 3.78 0 3.78a1.9 1.9 0 01-1.88-1.89 1.9 1.9 0 011.88-1.89" fill="#34393e" fill-rule="evenodd"/><path d="M95.9 167.13c.19.29.47.19.38-.1-.2-.94.1-1.6.84-2.07.38-.19.3-.19 0-.19-.47.1-.94.47-1.13.85a1.71 1.71 0 00-.09 1.51" fill="#4a4e52" fill-rule="evenodd"/><path d="M98.35 165.62c.1.1.1.28 0 .38l-1.32 1.32c-.1.1-.28.1-.38 0-.09-.1-.09-.28 0-.38l1.33-1.32c.09-.19.28-.19.37 0" fill="#252a2c" fill-rule="evenodd"/><path d="M98.35 167.32c-.09.1-.28.1-.37 0L96.65 166a.29.29 0 010-.38c.1-.19.29-.19.38 0l1.32 1.32c.1.1.1.29 0 .38M122.99 335.7a2.3 2.3 0 002.26-2.26 2.3 2.3 0 00-2.26-2.27 2.3 2.3 0 00-2.27 2.27 2.3 2.3 0 002.27 2.26" fill="#252a2c" fill-rule="evenodd"/><path d="M122.99 331.54c.85 0 2.54 3.78 0 3.78a1.89 1.89 0 010-3.78" fill="#34393e" fill-rule="evenodd"/><path d="M121.38 334.1c.2.28.47.28.38 0-.19-.95.1-1.7.94-2.08.29-.2.29-.29-.1-.2-.46.1-.93.39-1.12.86-.29.38-.29.94-.1 1.41" fill="#4a4e52" fill-rule="evenodd"/><path d="M123.84 332.58c.1.1.1.29 0 .38l-1.33 1.32c-.09.1-.28.1-.37 0-.1-.1-.1-.28 0-.37l1.32-1.33c.1-.1.28-.1.38 0" fill="#252a2c" fill-rule="evenodd"/><path d="M123.84 334.28c-.1.1-.29.1-.38 0l-1.32-1.32c-.1-.1-.1-.28 0-.38.1-.1.28-.1.38 0l1.32 1.33c.1.09.1.28 0 .37M97.5 335.7a2.3 2.3 0 002.27-2.26 2.3 2.3 0 00-2.27-2.27 2.3 2.3 0 00-2.26 2.27 2.3 2.3 0 002.26 2.26" fill="#252a2c" fill-rule="evenodd"/><path d="M97.5 331.54c.85 0 2.55 3.78 0 3.78a1.89 1.89 0 010-3.78" fill="#34393e" fill-rule="evenodd"/><path d="M95.9 334.1c.19.28.47.28.38 0-.2-.95.1-1.7.84-2.08.38-.2.3-.29 0-.2-.47.1-.94.39-1.13.86-.28.38-.28.94-.09 1.41" fill="#4a4e52" fill-rule="evenodd"/><path d="M98.35 332.58c.1.1.1.29 0 .38l-1.32 1.32c-.1.1-.28.1-.38 0-.09-.1-.09-.28 0-.37l1.33-1.33c.09-.1.28-.1.37 0" fill="#252a2c" fill-rule="evenodd"/><path d="M98.35 334.28c-.09.1-.28.1-.37 0l-1.33-1.32c-.09-.1-.09-.28 0-.38.1-.1.29-.1.38 0l1.32 1.33c.1.09.1.28 0 .37M122.99 366.56a2.3 2.3 0 002.26-2.27 2.21 2.21 0 00-2.26-2.16c-1.23 0-2.27.94-2.27 2.16a2.3 2.3 0 002.27 2.27" fill="#252a2c" fill-rule="evenodd"/><path d="M122.99 362.4c.85 0 2.54 3.78 0 3.78a1.9 1.9 0 010-3.77" fill="#34393e" fill-rule="evenodd"/><path d="M121.38 364.96c.2.28.47.28.38 0-.19-.95.1-1.7.94-2.08.29-.19.29-.28-.1-.19-.46.1-.93.38-1.12.85-.29.47-.29.94-.1 1.42" fill="#4a4e52" fill-rule="evenodd"/><path d="M123.84 363.44c.1.1.1.29 0 .38l-1.33 1.42c-.09.1-.28.1-.37 0-.1-.19-.1-.28 0-.47l1.32-1.33c.1-.09.28-.09.38 0" fill="#252a2c" fill-rule="evenodd"/><path d="M123.84 365.24c-.1.1-.29.1-.38 0l-1.32-1.42c-.1-.1-.1-.28 0-.38.1-.09.28-.09.38 0l1.32 1.33c.1.19.1.28 0 .47M97.5 366.56a2.3 2.3 0 002.27-2.27 2.22 2.22 0 00-2.27-2.16c-1.22 0-2.26.94-2.26 2.16a2.3 2.3 0 002.26 2.27" fill="#252a2c" fill-rule="evenodd"/><path d="M97.5 362.4c.85 0 2.55 3.78 0 3.78a1.89 1.89 0 010-3.77" fill="#34393e" fill-rule="evenodd"/><path d="M95.9 364.96c.19.28.47.28.38 0-.2-.95.1-1.7.84-2.08.38-.19.3-.28 0-.19-.47.1-.94.38-1.13.85-.28.47-.28.94-.09 1.42" fill="#4a4e52" fill-rule="evenodd"/><path d="M98.35 363.44c.1.1.1.29 0 .38l-1.32 1.42c-.1.1-.28.1-.38 0-.09-.19-.09-.28 0-.47l1.33-1.33c.09-.09.28-.09.37 0" fill="#252a2c" fill-rule="evenodd"/><path d="M98.35 365.24c-.09.1-.28.1-.37 0l-1.33-1.42c-.09-.1-.09-.28 0-.38.1-.09.29-.09.38 0l1.32 1.33c.1.19.1.28 0 .47" fill="#252a2c" fill-rule="evenodd"/><path d="M231 64.26c28.32 0 51.54 23.21 51.54 51.53V384.2c0 28.4-23.22 51.53-51.54 51.53a51.6 51.6 0 01-51.53-51.53V115.79c0-28.32 23.12-51.53 51.53-51.53" fill="#d03f72" fill-rule="evenodd"/><path d="M226.47 71.33a43.34 43.34 0 0143.23 43.23v261.16a43.34 43.34 0 01-43.23 43.22 43.34 43.34 0 01-43.22-43.22V114.56a43.34 43.34 0 0143.22-43.23" fill="#ff70a1" fill-rule="evenodd"/><path d="M217.79 131.83h26.43c1.88 0 3.49 1.6 3.49 3.5v31.9c0 1.88-1.6 3.49-3.5 3.49H217.8c-1.98 0-3.5-1.6-3.5-3.5v-31.9c0-1.88 1.52-3.49 3.5-3.49" fill="#9ea3a5" fill-rule="evenodd"/><path d="M193.82 138.06h74.28v11.14h-74.28z" fill="#c7cdce"/><path d="M184.38 140.23h12.36c1.13 0 2.17.95 2.17 2.08v2.64c0 1.13-1.03 2.08-2.17 2.08h-12.36a2.1 2.1 0 01-2.08-2.08v-2.64a2.1 2.1 0 012.08-2.08" fill="#c7cdce" fill-rule="evenodd"/><path d="M218.26 168.64c1.32 0 2.27-.94 2.27-2.17a2.22 2.22 0 10-4.43 0c0 1.23.93 2.17 2.16 2.17" fill="#8e9496" fill-rule="evenodd"/><path d="M218.36 164.58c.85 0 2.45 3.78 0 3.78a1.9 1.9 0 01-1.9-1.89 1.9 1.9 0 011.9-1.89" fill="#c7cdce" fill-rule="evenodd"/><path d="M216.75 167.13c.1.29.38.19.38-.1-.19-.94.1-1.6.85-2.07.28-.19.28-.19 0-.19-.57.1-.95.47-1.23.85a2.1 2.1 0 000 1.51" fill="#fff" fill-rule="evenodd"/><path d="M219.2 165.62c.1.1.1.28 0 .38l-1.41 1.32c-.1.1-.28.1-.38 0-.1-.1-.1-.28 0-.38l1.42-1.32c.1-.19.28-.19.38 0" fill="#6b7070" fill-rule="evenodd"/><path d="M219.2 167.32c-.09.1-.28.1-.37 0L217.4 166a.29.29 0 010-.38c.1-.19.29-.19.38 0l1.42 1.32c.1.1.1.29 0 .38" fill="#6b7070" fill-rule="evenodd"/><path d="M243.84 168.64c1.22 0 2.17-.94 2.17-2.17 0-1.22-.94-2.26-2.17-2.26a2.3 2.3 0 00-2.27 2.26 2.22 2.22 0 002.27 2.17" fill="#8e9496" fill-rule="evenodd"/><path d="M243.84 164.58c.85 0 2.45 3.78 0 3.78a1.9 1.9 0 01-1.89-1.89 1.9 1.9 0 011.89-1.89" fill="#c7cdce" fill-rule="evenodd"/><path d="M242.24 167.13c.09.29.37.19.37-.1-.19-.94.1-1.6.85-2.07.29-.19.29-.19 0-.19-.56.1-.94.47-1.13.85a1.72 1.72 0 00-.1 1.51" fill="#fff" fill-rule="evenodd"/><path d="M244.69 165.62c.1.1.1.28 0 .38l-1.32 1.32c-.2.1-.38.1-.47 0-.1-.1-.1-.28 0-.38l1.41-1.32c.1-.19.28-.19.38 0" fill="#6b7070" fill-rule="evenodd"/><path d="M244.69 167.32c-.1.1-.28.1-.38 0L242.9 166a.29.29 0 010-.38c.09-.19.28-.19.47 0l1.32 1.32c.1.1.1.29 0 .38" fill="#6b7070" fill-rule="evenodd"/><path d="M231 149.01c-15.95.1-23.88.19-23.88.19 3.4 1.51 12.09 4.63 13.69 7.93 2.55 5 6.23 7.64 10.2 7.64v-15.76" fill="#c7cdce" fill-rule="evenodd"/><path d="M193.82 147.78h74.28v1.42h-74.28z" fill="#9ea3a5"/><path d="M207.13 139.48h47a1.9 1.9 0 011.88 1.89v1.13a1.9 1.9 0 01-1.88 1.89h-47a1.91 1.91 0 01-1.99-1.9v-1.13c0-1.03.85-1.88 1.99-1.88" fill="#dee2e3" fill-rule="evenodd"/><path d="M207.03 140.14h44.17c.38 0 .66.28.66.66v.47c0 .38-.28.66-.66.66h-44.17c-.47 0-.75-.28-.75-.66v-.47c0-.38.28-.66.75-.66" fill="#fff" fill-rule="evenodd"/><path d="M231 149.01c15.86.1 23.88.19 23.88.19-3.4 1.51-12.17 4.63-13.68 7.93-2.64 5-6.33 7.64-10.2 7.64v-15.76" fill="#c7cdce" fill-rule="evenodd"/><path d="M231 143.63c14.73 0 9.72 19.92 0 19.92-10 0-14.9-19.92 0-19.92" fill="#92999b" fill-rule="evenodd"/><path d="M231 162.6c3.59 0 6.51-2.73 6.51-6.13 0-3.3-2.92-6.04-6.5-6.04-3.6 0-6.61 2.73-6.61 6.04 0 3.4 3.02 6.13 6.6 6.13" fill="#6b7070" fill-rule="evenodd"/><path d="M231 162.04c3.3 0 5.95-2.46 5.95-5.57 0-3.02-2.64-5.48-5.95-5.48-3.3 0-6.04 2.46-6.04 5.48 0 3.11 2.74 5.57 6.04 5.57" fill="#c7cdce" fill-rule="evenodd"/><path d="M231 157.5a2.22 2.22 0 002.18-2.26c0-1.23-.95-2.17-2.18-2.17-1.22 0-2.26.94-2.26 2.17a2.3 2.3 0 002.26 2.27" fill="#92999b" fill-rule="evenodd"/><path d="M231 153.35c.85 0 2.46 3.78 0 3.78a1.9 1.9 0 01-1.88-1.89 1.9 1.9 0 011.88-1.89" fill="#c7cdce" fill-rule="evenodd"/><path d="M229.4 155.9c.19.28.47.28.38 0-.2-.94.1-1.7.84-2.08.29-.19.29-.28 0-.19-.47.1-.94.38-1.13.86-.28.47-.28.94-.1 1.41" fill="#fff" fill-rule="evenodd"/><path d="M231.85 154.39c.1.1.1.28 0 .38l-1.32 1.32c-.1.19-.28.19-.38 0-.19-.1-.19-.28 0-.38l1.33-1.32c.09-.1.28-.1.37 0" fill="#6b7070" fill-rule="evenodd"/><path d="M231.85 156.09c-.1.19-.28.19-.37 0l-1.33-1.32c-.19-.1-.19-.28 0-.38.1-.1.29-.1.38 0l1.32 1.32c.1.1.1.28 0 .38M232.6 149.58c3.31.47 3.6-3.78.58-4.82-5.48-1.7-11.24 1.9-11.14 8.3.09 1.33.37 2.46.75 3.6.85 1.98 1.13 1.98.95-.2 0-1.79.75-3.4 1.88-4.62 2.08-1.89 4.34-2.45 6.99-2.26" fill="#6b7070" fill-rule="evenodd"/><path d="M238.27 156.18c-.1 1.14.1 1.14.66.2 1.32-3.22 1.13-6.05-.47-8.4-.85-1.04-2.55.56-1.42 2.35a9.99 9.99 0 011.23 5.85M184.57 140.9h9.53c.85 0 1.6.65 1.6 1.6v1.98c0 .85-.75 1.6-1.6 1.6h-9.53c-.85 0-1.6-.75-1.6-1.6v-1.98c0-.95.75-1.6 1.6-1.6" fill="#dee2e3" fill-rule="evenodd"/><path d="M191.46 127.59h6.04c3.49 0 6.32 2.83 6.32 6.32v19.44a6.4 6.4 0 01-6.32 6.42h-6.04a6.49 6.49 0 01-6.42-6.42v-19.44a6.4 6.4 0 016.42-6.32" fill="#2c3236" fill-rule="evenodd"/><path d="M190.7 128.9h4.53a4.8 4.8 0 014.72 4.73v18.3a4.73 4.73 0 01-4.72 4.73h-4.53a4.73 4.73 0 01-4.72-4.72v-18.31a4.8 4.8 0 014.72-4.72" fill="#353c41" fill-rule="evenodd"/><path d="M187.97 154.2a4.13 4.13 0 01-1.33-3.11v-16.52c0-1.7 1.04-3.11 2.46-3.87 1.04-.57 1.32 1.04 1.32 2.83v17.18c0 2.17-.28 5.38-2.45 3.5" fill="#4a4e52" fill-rule="evenodd"/><path d="M218.26 137.78a2.23 2.23 0 002.27-2.27c0-1.22-.95-2.17-2.27-2.17-1.23 0-2.17.95-2.17 2.17 0 1.23.94 2.27 2.17 2.27" fill="#8e9496" fill-rule="evenodd"/><path d="M218.36 133.63c.85 0 2.45 3.77 0 3.77a1.9 1.9 0 01-1.9-1.89 1.9 1.9 0 011.9-1.88" fill="#c7cdce" fill-rule="evenodd"/><path d="M216.75 136.18c.1.28.38.28.38 0-.19-.95.1-1.7.85-2.08.28-.19.28-.29 0-.19-.57.1-.95.38-1.23.85-.19.47-.19.94 0 1.42" fill="#fff" fill-rule="evenodd"/><path d="M219.2 134.67c.1.09.1.28 0 .37l-1.41 1.42c-.1.1-.28.1-.38 0-.1-.19-.1-.28 0-.47l1.42-1.32c.1-.1.28-.1.38 0" fill="#6b7070" fill-rule="evenodd"/><path d="M219.2 136.46c-.09.1-.28.1-.37 0l-1.42-1.42c-.1-.1-.1-.28 0-.37.1-.1.29-.1.38 0l1.42 1.32c.1.19.1.28 0 .47" fill="#6b7070" fill-rule="evenodd"/><path d="M243.84 137.78a2.22 2.22 0 002.17-2.27c0-1.22-.94-2.17-2.17-2.17s-2.27.95-2.27 2.17a2.3 2.3 0 002.27 2.27" fill="#8e9496" fill-rule="evenodd"/><path d="M243.84 133.63c.85 0 2.45 3.77 0 3.77a1.9 1.9 0 01-1.89-1.89 1.9 1.9 0 011.89-1.88" fill="#c7cdce" fill-rule="evenodd"/><path d="M242.24 136.18c.09.28.37.28.37 0-.19-.95.1-1.7.85-2.08.29-.19.29-.29 0-.19-.56.1-.94.38-1.13.85-.28.47-.28.94-.1 1.42" fill="#fff" fill-rule="evenodd"/><path d="M244.69 134.67c.1.09.1.28 0 .37l-1.32 1.42c-.2.1-.38.1-.47 0-.1-.19-.1-.28 0-.47l1.41-1.32c.1-.1.28-.1.38 0" fill="#6b7070" fill-rule="evenodd"/><path d="M244.69 136.46c-.1.1-.28.1-.38 0l-1.41-1.42c-.1-.1-.1-.28 0-.37.09-.1.28-.1.47 0l1.32 1.32c.1.19.1.28 0 .47" fill="#6b7070" fill-rule="evenodd"/><path d="M227.32 164.77c-.47-.1-.85.38-.94.85l-1.23 5.1h11.61l-1.13-5.1c-.1-.47-.47-.94-1.04-.85-3.68.66-3.59.66-7.27 0" fill="#b1b4b6" fill-rule="evenodd"/><path d="M277.44 140.23h-12.36a2.1 2.1 0 00-2.08 2.08v2.64a2.1 2.1 0 002.08 2.08h12.36a2.1 2.1 0 002.07-2.08v-2.64a2.1 2.1 0 00-2.07-2.08" fill="#c7cdce" fill-rule="evenodd"/><path d="M277.25 140.9h-9.53c-.85 0-1.6.65-1.6 1.6v1.98c0 .85.75 1.6 1.6 1.6h9.53c.85 0 1.6-.75 1.6-1.6v-1.98c0-.95-.75-1.6-1.6-1.6" fill="#dee2e3" fill-rule="evenodd"/><path d="M270.36 127.59h-6.04a6.32 6.32 0 00-6.32 6.32v19.44a6.4 6.4 0 006.32 6.42h6.04a6.42 6.42 0 006.42-6.42v-19.44c0-3.5-2.83-6.32-6.42-6.32" fill="#2c3236" fill-rule="evenodd"/><path d="M263.56 128.9H268a4.73 4.73 0 014.72 4.73v18.3a4.67 4.67 0 01-4.72 4.73h-4.44a4.67 4.67 0 01-4.71-4.72v-18.31a4.73 4.73 0 014.71-4.72" fill="#353c41" fill-rule="evenodd"/><path d="M260.83 154.2a4.13 4.13 0 01-1.32-3.11v-16.52c0-1.7 1.03-3.11 2.36-3.87 1.03-.57 1.41 1.04 1.41 2.83v17.18c0 2.17-.38 5.38-2.45 3.5" fill="#4a4e52" fill-rule="evenodd"/><path d="M217.79 367.98h26.43c1.88 0 3.49-1.51 3.49-3.5v-31.8c0-1.99-1.6-3.5-3.5-3.5H217.8c-1.98 0-3.5 1.51-3.5 3.5v31.8c0 1.99 1.52 3.5 3.5 3.5" fill="#9ea3a5" fill-rule="evenodd"/><path d="M193.82 350.7h74.28v11.14h-74.28z" fill="#c7cdce"/><path d="M184.38 359.67h12.36a2.2 2.2 0 002.17-2.17v-2.55c0-1.13-1.03-2.08-2.17-2.08h-12.36a2.1 2.1 0 00-2.08 2.08v2.55c0 1.23.95 2.17 2.08 2.17M231 350.9c-15.95-.2-23.88-.2-23.88-.2 3.4-1.6 12.09-4.62 13.69-7.93 2.55-5 6.23-7.64 10.2-7.64v15.76" fill="#c7cdce" fill-rule="evenodd"/><path d="M193.82 350.7h74.28v1.42h-74.28z" fill="#9ea3a5"/><path d="M207.6 359.3h45.96a2.5 2.5 0 002.45-2.46v-1.41a2.5 2.5 0 00-2.45-2.46H207.6a2.5 2.5 0 00-2.46 2.46v1.4a2.5 2.5 0 002.46 2.46" fill="#dee2e3" fill-rule="evenodd"/><path d="M207.03 356.46h44.17c.38 0 .66-.38.66-.75v-.38c0-.38-.28-.75-.66-.75h-44.17a.74.74 0 00-.75.75v.38c0 .37.28.75.75.75" fill="#fff" fill-rule="evenodd"/><path d="M231 350.9c15.86-.2 23.88-.2 23.88-.2-3.4-1.6-12.17-4.62-13.68-7.93-2.64-5-6.33-7.64-10.2-7.64v15.76" fill="#c7cdce" fill-rule="evenodd"/><path d="M231 356.27c14.73 0 9.72-20 0-20-10 0-14.9 20 0 20" fill="#92999b" fill-rule="evenodd"/><path d="M231 349.48c3.59 0 6.51-2.74 6.51-6.14 0-3.3-2.92-6.04-6.5-6.04-3.6 0-6.61 2.74-6.61 6.04 0 3.4 3.02 6.14 6.6 6.14" fill="#6b7070" fill-rule="evenodd"/><path d="M231 348.91c3.3 0 5.95-2.45 5.95-5.57 0-3.02-2.64-5.47-5.95-5.47-3.3 0-6.04 2.45-6.04 5.48 0 3.1 2.74 5.56 6.04 5.56" fill="#c7cdce" fill-rule="evenodd"/><path d="M231 346.84c1.23 0 2.18-.95 2.18-2.17 0-1.23-.95-2.27-2.18-2.27a2.3 2.3 0 00-2.26 2.26 2.22 2.22 0 002.26 2.18" fill="#92999b" fill-rule="evenodd"/><path d="M231 346.55c.85 0 2.46-3.78 0-3.78a1.9 1.9 0 00-1.88 1.9 1.9 1.9 0 001.88 1.88" fill="#c7cdce" fill-rule="evenodd"/><path d="M229.4 344c.19-.28.47-.28.38 0-.2.95.1 1.7.84 2.08.29.19.29.28 0 .19-.47-.1-.94-.38-1.13-.85a1.51 1.51 0 01-.1-1.42" fill="#fff" fill-rule="evenodd"/><path d="M231.85 345.51c.1-.09.1-.28 0-.37l-1.32-1.42c-.1-.1-.28-.1-.38 0-.19.19-.19.28 0 .47l1.33 1.32c.09.1.28.1.37 0" fill="#6b7070" fill-rule="evenodd"/><path d="M231.85 343.72a.29.29 0 00-.37 0l-1.33 1.42c-.19.09-.19.28 0 .37.1.1.29.1.38 0l1.32-1.32c.1-.19.1-.28 0-.47M232.6 350.32c3.31-.47 3.6 3.78.58 4.73-5.48 1.7-11.24-1.8-11.14-8.21.09-1.33.37-2.55.75-3.6.85-1.97 1.13-1.97.95.2 0 1.79.75 3.3 1.88 4.62 2.08 1.89 4.34 2.46 6.99 2.26" fill="#6b7070" fill-rule="evenodd"/><path d="M238.27 343.72c-.1-1.13.1-1.23.66-.19 1.32 3.2 1.13 6.04-.47 8.4-.85.95-2.55-.56-1.42-2.36a10.13 10.13 0 001.23-5.85M184.57 359.01h9.53c.85 0 1.6-.75 1.6-1.6v-1.99c0-.85-.75-1.6-1.6-1.6h-9.53c-.85 0-1.6.75-1.6 1.6v1.98c0 .86.75 1.61 1.6 1.61" fill="#dee2e3" fill-rule="evenodd"/><path d="M191.46 372.32h6.04c3.49 0 6.32-2.83 6.32-6.32v-19.45a6.4 6.4 0 00-6.32-6.42h-6.04a6.48 6.48 0 00-6.42 6.42v19.44a6.4 6.4 0 006.42 6.33" fill="#2c3236" fill-rule="evenodd"/><path d="M190.7 369.58h4.53a4.74 4.74 0 004.72-4.72v-18.31a4.8 4.8 0 00-4.72-4.72h-4.53a4.8 4.8 0 00-4.72 4.72v18.31a4.73 4.73 0 004.72 4.72" fill="#353c41" fill-rule="evenodd"/><path d="M187.97 344.38a4.12 4.12 0 00-1.33 3.12V364c0 1.7 1.04 3.02 2.46 3.87 1.04.57 1.32-1.04 1.32-2.92v-17.09c0-2.17-.28-5.38-2.45-3.49" fill="#4a4e52" fill-rule="evenodd"/><path d="M227.32 335.13c-.47.1-.85-.38-.94-.85l-1.23-5.1h11.61l-1.13 5.1c-.1.47-.47.95-1.04.85-3.68-.66-3.59-.66-7.27 0" fill="#b1b4b6" fill-rule="evenodd"/><path d="M277.44 359.67h-12.36a2.12 2.12 0 01-2.08-2.17v-2.55a2.1 2.1 0 012.08-2.08h12.36a2.1 2.1 0 012.07 2.08v2.55c0 1.23-.94 2.17-2.07 2.17" fill="#c7cdce" fill-rule="evenodd"/><path d="M277.25 359.01h-9.53c-.85 0-1.6-.75-1.6-1.6v-1.99c0-.85.75-1.6 1.6-1.6h9.53c.85 0 1.6.75 1.6 1.6v1.98c0 .86-.75 1.61-1.6 1.61" fill="#dee2e3" fill-rule="evenodd"/><path d="M270.36 372.32h-6.04A6.32 6.32 0 01258 366v-19.45a6.4 6.4 0 016.32-6.42h6.04a6.42 6.42 0 016.42 6.42v19.44c0 3.5-2.83 6.33-6.42 6.33" fill="#2c3236" fill-rule="evenodd"/><path d="M263.56 369.58H268a4.67 4.67 0 004.72-4.72v-18.31a4.73 4.73 0 00-4.72-4.72h-4.44a4.73 4.73 0 00-4.71 4.72v18.31a4.67 4.67 0 004.71 4.72" fill="#353c41" fill-rule="evenodd"/><path d="M260.83 344.38a4.13 4.13 0 00-1.32 3.12V364c0 1.7 1.03 3.02 2.36 3.87 1.03.57 1.41-1.04 1.41-2.92v-17.09c0-2.17-.38-5.38-2.45-3.49" fill="#4a4e52" fill-rule="evenodd"/><path d="M218.26 335.7a2.23 2.23 0 002.27-2.26 2.22 2.22 0 10-4.43 0c0 1.22.93 2.26 2.16 2.26" fill="#8e9496" fill-rule="evenodd"/><path d="M218.36 331.54c.85 0 2.45 3.78 0 3.78a1.9 1.9 0 01-1.9-1.88 1.9 1.9 0 011.9-1.9" fill="#c7cdce" fill-rule="evenodd"/><path d="M216.75 334.1c.1.28.38.28.38 0-.19-.95.1-1.7.85-2.08.28-.2.28-.29 0-.2-.57.1-.95.39-1.23.86-.19.38-.19.94 0 1.41" fill="#fff" fill-rule="evenodd"/><path d="M219.2 332.58c.1.1.1.29 0 .38l-1.41 1.32c-.1.1-.28.1-.38 0-.1-.1-.1-.28 0-.37l1.42-1.33c.1-.1.28-.1.38 0" fill="#6b7070" fill-rule="evenodd"/><path d="M219.2 334.28c-.09.1-.28.1-.37 0l-1.42-1.32c-.1-.1-.1-.28 0-.38.1-.1.29-.1.38 0l1.42 1.33c.1.09.1.28 0 .37" fill="#6b7070" fill-rule="evenodd"/><path d="M243.84 335.7a2.3 2.3 0 002.26-2.26 2.3 2.3 0 00-2.26-2.27 2.3 2.3 0 00-2.27 2.27 2.3 2.3 0 002.27 2.26" fill="#8e9496" fill-rule="evenodd"/><path d="M243.84 331.54c.85 0 2.55 3.78 0 3.78a1.89 1.89 0 010-3.78" fill="#c7cdce" fill-rule="evenodd"/><path d="M242.24 334.1c.18.28.47.28.37 0-.19-.95.1-1.7.85-2.08.38-.2.29-.29 0-.2-.47.1-.94.39-1.13.86-.28.38-.28.94-.1 1.41" fill="#fff" fill-rule="evenodd"/><path d="M244.69 332.58c.1.1.1.29 0 .38l-1.32 1.32c-.1.1-.29.1-.38 0-.1-.1-.1-.28 0-.37l1.32-1.33c.1-.1.28-.1.38 0" fill="#6b7070" fill-rule="evenodd"/><path d="M244.69 334.28c-.1.1-.28.1-.38 0l-1.32-1.32c-.1-.1-.1-.28 0-.38.1-.1.28-.1.38 0l1.32 1.33c.1.09.1.28 0 .37" fill="#6b7070" fill-rule="evenodd"/><path d="M218.26 366.56c1.32 0 2.27-.94 2.27-2.17s-.95-2.26-2.27-2.26a2.21 2.21 0 00-2.17 2.26c0 1.23.94 2.17 2.17 2.17" fill="#8e9496" fill-rule="evenodd"/><path d="M218.36 362.5c.85 0 2.45 3.78 0 3.78a1.9 1.9 0 01-1.9-1.9 1.9 1.9 0 011.9-1.88" fill="#c7cdce" fill-rule="evenodd"/><path d="M216.75 365.05c.1.28.38.19.38 0-.19-1.04.1-1.7.85-2.17.28-.19.28-.19 0-.19-.57.1-.95.47-1.23.94-.19.38-.19.95 0 1.42" fill="#fff" fill-rule="evenodd"/><path d="M219.2 363.54c.1.1.1.28 0 .38l-1.41 1.32c-.1.1-.28.1-.38 0-.1-.1-.1-.28 0-.38l1.42-1.32c.1-.19.28-.19.38 0" fill="#6b7070" fill-rule="evenodd"/><path d="M219.2 365.24c-.09.1-.28.1-.37 0l-1.42-1.32c-.1-.1-.1-.29 0-.38.1-.19.29-.19.38 0l1.42 1.32c.1.1.1.29 0 .38" fill="#6b7070" fill-rule="evenodd"/><path d="M243.84 366.56c1.22 0 2.26-.94 2.26-2.17a2.3 2.3 0 00-2.26-2.26 2.3 2.3 0 00-2.27 2.26 2.22 2.22 0 002.27 2.17" fill="#8e9496" fill-rule="evenodd"/><path d="M243.84 362.5c.85 0 2.55 3.78 0 3.78a1.9 1.9 0 010-3.78" fill="#c7cdce" fill-rule="evenodd"/><path d="M242.24 365.05c.18.28.47.19.37 0-.19-1.04.1-1.7.85-2.17.38-.19.29-.19 0-.19-.47.1-.94.47-1.13.94-.28.38-.28.95-.1 1.42" fill="#fff" fill-rule="evenodd"/><path d="M244.69 363.54c.1.1.1.28 0 .38l-1.32 1.32c-.1.1-.29.1-.38 0-.1-.1-.1-.28 0-.38l1.32-1.32c.1-.19.28-.19.38 0" fill="#6b7070" fill-rule="evenodd"/><path d="M244.69 365.24c-.1.1-.28.1-.38 0l-1.32-1.32c-.1-.1-.1-.29 0-.38.1-.19.28-.19.38 0l1.32 1.32c.1.1.1.29 0 .38" fill="#6b7070" fill-rule="evenodd"/><path d="M394.42 64.26c28.32 0 51.53 23.21 51.53 51.53V384.2a51.66 51.66 0 01-51.53 51.53 51.6 51.6 0 01-51.53-51.53V115.79a51.66 51.66 0 0151.53-51.53" fill="#2c3236" fill-rule="evenodd"/><path d="M389.9 71.33a43.34 43.34 0 0143.22 43.23v261.16a43.34 43.34 0 01-43.23 43.22 43.34 43.34 0 01-43.23-43.22V114.56a43.34 43.34 0 0143.23-43.23" fill="#353c41" fill-rule="evenodd"/><path d="M407.26 137.78a2.22 2.22 0 002.17-2.27c0-1.22-.95-2.17-2.17-2.17-1.32 0-2.27.95-2.27 2.17 0 1.23.95 2.27 2.27 2.27" fill="#252a2c" fill-rule="evenodd"/><path d="M407.26 133.63c.85 0 2.45 3.77 0 3.77a1.9 1.9 0 01-1.9-1.89 1.9 1.9 0 011.9-1.88" fill="#34393e" fill-rule="evenodd"/><path d="M405.65 136.18c.1.28.38.28.38 0-.19-.95.1-1.7.85-2.08.28-.19.28-.29 0-.19-.57.1-.94.38-1.23.85-.19.47-.19.94 0 1.42" fill="#4a4e52" fill-rule="evenodd"/><path d="M408.1 134.67c.1.09.1.28 0 .37l-1.41 1.42c-.1.1-.28.1-.38 0-.09-.19-.09-.28 0-.47l1.42-1.32c.1-.1.28-.1.38 0" fill="#252a2c" fill-rule="evenodd"/><path d="M408.1 136.46c-.09.1-.27.1-.37 0l-1.42-1.42c-.09-.1-.09-.28 0-.37.1-.1.29-.1.38 0l1.42 1.32c.1.19.1.28 0 .47M381.68 137.78a2.3 2.3 0 002.27-2.27 2.22 2.22 0 00-2.27-2.17c-1.23 0-2.17.95-2.17 2.17 0 1.23.94 2.27 2.17 2.27" fill="#252a2c" fill-rule="evenodd"/><path d="M381.77 133.63c.85 0 2.46 3.77 0 3.77a1.89 1.89 0 010-3.77" fill="#34393e" fill-rule="evenodd"/><path d="M380.17 136.18c.1.28.38.28.38 0-.2-.95.1-1.7.85-2.08.28-.19.28-.29-.1-.19-.47.1-.85.38-1.13.85-.2.47-.2.94 0 1.42" fill="#4a4e52" fill-rule="evenodd"/><path d="M382.62 134.67c.1.09.1.28 0 .37l-1.41 1.42c-.1.1-.29.1-.38 0-.1-.19-.1-.28 0-.47l1.32-1.32c.2-.1.29-.1.47 0" fill="#252a2c" fill-rule="evenodd"/><path d="M382.62 136.46c-.1.1-.28.1-.47 0l-1.32-1.42c-.1-.1-.1-.28 0-.37.1-.1.28-.1.38 0l1.41 1.32c.1.19.1.28 0 .47M407.26 168.64c1.22 0 2.17-.94 2.17-2.17a2.22 2.22 0 10-4.44 0c0 1.23.95 2.17 2.27 2.17" fill="#252a2c" fill-rule="evenodd"/><path d="M407.26 164.58c.85 0 2.45 3.78 0 3.78a1.9 1.9 0 01-1.9-1.89 1.9 1.9 0 011.9-1.89" fill="#34393e" fill-rule="evenodd"/><path d="M405.65 167.13c.1.29.38.19.38-.1-.19-.94.1-1.6.85-2.07.28-.19.28-.19 0-.19-.57.1-.94.47-1.23.85a2.08 2.08 0 000 1.51" fill="#4a4e52" fill-rule="evenodd"/><path d="M408.1 165.62c.1.1.1.28 0 .38l-1.41 1.32c-.1.1-.28.1-.38 0-.09-.1-.09-.28 0-.38l1.42-1.32c.1-.19.28-.19.38 0" fill="#252a2c" fill-rule="evenodd"/><path d="M408.1 167.32c-.09.1-.27.1-.37 0L406.3 166a.3.3 0 010-.38c.1-.19.29-.19.38 0l1.42 1.32c.1.1.1.29 0 .38M381.68 168.64c1.23 0 2.27-.94 2.27-2.17a2.3 2.3 0 00-2.27-2.26 2.22 2.22 0 00-2.17 2.26c0 1.23.94 2.17 2.17 2.17" fill="#252a2c" fill-rule="evenodd"/><path d="M381.77 164.58c.85 0 2.46 3.78 0 3.78a1.89 1.89 0 010-3.78" fill="#34393e" fill-rule="evenodd"/><path d="M380.17 167.13c.1.29.38.19.38-.1-.2-.94.1-1.6.85-2.07.28-.19.28-.19-.1-.19-.47.1-.85.47-1.13.85a2.08 2.08 0 000 1.51" fill="#4a4e52" fill-rule="evenodd"/><path d="M382.62 165.62c.1.1.1.28 0 .38l-1.41 1.32c-.1.1-.29.1-.38 0-.1-.1-.1-.28 0-.38l1.32-1.32c.2-.19.29-.19.47 0" fill="#252a2c" fill-rule="evenodd"/><path d="M382.62 167.32c-.1.1-.28.1-.47 0l-1.32-1.32a.28.28 0 010-.38c.1-.19.28-.19.38 0l1.41 1.32c.1.1.1.29 0 .38M407.26 335.7a2.22 2.22 0 002.17-2.26 2.22 2.22 0 10-4.44 0c0 1.22.95 2.26 2.27 2.26" fill="#252a2c" fill-rule="evenodd"/><path d="M407.26 331.54c.85 0 2.45 3.78 0 3.78a1.9 1.9 0 01-1.9-1.88 1.9 1.9 0 011.9-1.9" fill="#34393e" fill-rule="evenodd"/><path d="M405.65 334.1c.1.28.38.28.38 0-.19-.95.1-1.7.85-2.08.28-.2.28-.29 0-.2-.57.1-.94.39-1.23.86-.19.38-.19.94 0 1.41" fill="#4a4e52" fill-rule="evenodd"/><path d="M408.1 332.58c.1.1.1.29 0 .38l-1.41 1.32c-.1.1-.28.1-.38 0-.09-.1-.09-.28 0-.37l1.42-1.33c.1-.1.28-.1.38 0" fill="#252a2c" fill-rule="evenodd"/><path d="M408.1 334.28c-.09.1-.27.1-.37 0l-1.42-1.32c-.09-.1-.09-.28 0-.38.1-.1.29-.1.38 0l1.42 1.33c.1.09.1.28 0 .37M381.68 335.7a2.3 2.3 0 002.27-2.26 2.3 2.3 0 00-2.27-2.27 2.22 2.22 0 00-2.17 2.27c0 1.22.94 2.26 2.17 2.26" fill="#252a2c" fill-rule="evenodd"/><path d="M381.77 331.54c.85 0 2.46 3.78 0 3.78a1.89 1.89 0 010-3.78" fill="#34393e" fill-rule="evenodd"/><path d="M380.17 334.1c.1.28.38.28.38 0-.2-.95.1-1.7.85-2.08.28-.2.28-.29-.1-.2-.47.1-.85.39-1.13.86-.2.38-.2.94 0 1.41" fill="#4a4e52" fill-rule="evenodd"/><path d="M382.62 332.58c.1.1.1.29 0 .38l-1.41 1.32c-.1.1-.29.1-.38 0-.1-.1-.1-.28 0-.37l1.32-1.33c.2-.1.29-.1.47 0" fill="#252a2c" fill-rule="evenodd"/><path d="M382.62 334.28c-.1.1-.28.1-.47 0l-1.32-1.32c-.1-.1-.1-.28 0-.38.1-.1.28-.1.38 0l1.41 1.33c.1.09.1.28 0 .37M407.26 366.56a2.22 2.22 0 002.17-2.27c0-1.22-.95-2.16-2.17-2.16-1.32 0-2.27.94-2.27 2.16 0 1.23.95 2.27 2.27 2.27" fill="#252a2c" fill-rule="evenodd"/><path d="M407.26 362.4c.85 0 2.45 3.78 0 3.78a1.9 1.9 0 01-1.9-1.89 1.9 1.9 0 011.9-1.88" fill="#34393e" fill-rule="evenodd"/><path d="M405.65 364.96c.1.28.38.28.38 0-.19-.95.1-1.7.85-2.08.28-.19.28-.28 0-.19-.57.1-.94.38-1.23.85-.19.47-.19.94 0 1.42" fill="#4a4e52" fill-rule="evenodd"/><path d="M408.1 363.44c.1.1.1.29 0 .38l-1.41 1.42c-.1.1-.28.1-.38 0-.09-.19-.09-.28 0-.47l1.42-1.33c.1-.09.28-.09.38 0" fill="#252a2c" fill-rule="evenodd"/><path d="M408.1 365.24c-.09.1-.27.1-.37 0l-1.42-1.42c-.09-.1-.09-.28 0-.38.1-.09.29-.09.38 0l1.42 1.33c.1.19.1.28 0 .47M381.68 366.56a2.3 2.3 0 002.27-2.27 2.22 2.22 0 00-2.27-2.16c-1.23 0-2.17.94-2.17 2.16 0 1.23.94 2.27 2.17 2.27" fill="#252a2c" fill-rule="evenodd"/><path d="M381.77 362.4c.85 0 2.46 3.78 0 3.78a1.89 1.89 0 010-3.77" fill="#34393e" fill-rule="evenodd"/><path d="M380.17 364.96c.1.28.38.28.38 0-.2-.95.1-1.7.85-2.08.28-.19.28-.28-.1-.19-.47.1-.85.38-1.13.85-.2.47-.2.94 0 1.42" fill="#4a4e52" fill-rule="evenodd"/><path d="M382.62 363.44c.1.1.1.29 0 .38l-1.41 1.42c-.1.1-.29.1-.38 0-.1-.19-.1-.28 0-.47l1.32-1.33c.2-.09.29-.09.47 0" fill="#252a2c" fill-rule="evenodd"/><path d="M382.62 365.24c-.1.1-.28.1-.47 0l-1.32-1.42c-.1-.1-.1-.28 0-.38.1-.09.28-.09.38 0l1.41 1.33c.1.19.1.28 0 .47" fill="#252a2c" fill-rule="evenodd"/><path d="M515.18 64.26c28.4 0 51.53 23.21 51.53 51.53V384.2a51.6 51.6 0 01-51.53 51.53c-28.31 0-51.53-23.12-51.53-51.53V115.79c0-28.32 23.22-51.53 51.53-51.53" fill="#2c3236" fill-rule="evenodd"/><path d="M510.75 71.33a43.34 43.34 0 0143.22 43.23v261.16a43.34 43.34 0 01-43.23 43.22 43.34 43.34 0 01-43.22-43.22V114.56a43.34 43.34 0 0143.23-43.23" fill="#353c41" fill-rule="evenodd"/><path d="M501.97 131.83h26.42c1.99 0 3.59 1.6 3.59 3.5v31.9c0 1.88-1.6 3.49-3.59 3.49h-26.42c-1.9 0-3.5-1.6-3.5-3.5v-31.9c0-1.88 1.6-3.49 3.5-3.49" fill="#9ea3a5" fill-rule="evenodd"/><path d="M478.09 138.06h74.27v11.14H478.1z" fill="#c7cdce"/><path d="M468.65 140.23h12.36a2.1 2.1 0 012.08 2.08v2.64a2.1 2.1 0 01-2.08 2.08h-12.36a2.12 2.12 0 01-2.17-2.08v-2.64c0-1.13.94-2.08 2.17-2.08" fill="#c7cdce" fill-rule="evenodd"/><path d="M502.53 168.64c1.23 0 2.27-.94 2.27-2.17a2.3 2.3 0 00-2.27-2.26 2.3 2.3 0 00-2.26 2.26 2.22 2.22 0 002.26 2.17" fill="#8e9496" fill-rule="evenodd"/><path d="M502.53 164.58c.85 0 2.55 3.78 0 3.78a1.9 1.9 0 010-3.78" fill="#c7cdce" fill-rule="evenodd"/><path d="M500.93 167.13c.19.29.47.19.38-.1-.2-.94.09-1.6.94-2.07.28-.19.28-.19-.1-.19-.47.1-.94.47-1.13.85a1.72 1.72 0 00-.1 1.51" fill="#fff" fill-rule="evenodd"/><path d="M503.38 165.62c.1.1.1.28 0 .38l-1.32 1.32c-.1.1-.28.1-.38 0-.1-.1-.1-.28 0-.38l1.32-1.32c.1-.19.29-.19.38 0" fill="#6b7070" fill-rule="evenodd"/><path d="M503.38 167.32c-.1.1-.28.1-.38 0l-1.32-1.32a.3.3 0 010-.38c.1-.19.29-.19.38 0l1.32 1.32c.1.1.1.29 0 .38" fill="#6b7070" fill-rule="evenodd"/><path d="M528.01 168.64c1.23 0 2.27-.94 2.27-2.17a2.3 2.3 0 00-2.27-2.26 2.3 2.3 0 00-2.26 2.26 2.22 2.22 0 002.26 2.17" fill="#8e9496" fill-rule="evenodd"/><path d="M528.01 164.58c.86 0 2.55 3.78 0 3.78a1.9 1.9 0 010-3.78" fill="#c7cdce" fill-rule="evenodd"/><path d="M526.41 167.13c.19.29.47.19.38-.1-.19-.94.1-1.6.94-2.07.28-.19.28-.19-.1-.19-.47.1-.94.47-1.13.85a2.1 2.1 0 00-.09 1.51" fill="#fff" fill-rule="evenodd"/><path d="M528.87 165.62c.09.1.09.28 0 .38l-1.33 1.32c-.1.1-.28.1-.38 0-.09-.1-.09-.28 0-.38l1.33-1.32c.1-.19.28-.19.38 0" fill="#6b7070" fill-rule="evenodd"/><path d="M528.87 167.32c-.1.1-.29.1-.38 0l-1.33-1.32a.29.29 0 010-.38c.1-.19.29-.19.38 0l1.33 1.32c.09.1.09.29 0 .38" fill="#6b7070" fill-rule="evenodd"/><path d="M515.18 149.01c-15.86.1-23.88.19-23.88.19 3.4 1.51 12.18 4.63 13.69 7.93 2.64 5 6.32 7.64 10.19 7.64v-15.76" fill="#c7cdce" fill-rule="evenodd"/><path d="M478.09 147.78h74.27v1.42H478.1z" fill="#9ea3a5"/><path d="M491.3 139.48h47c1.14 0 1.99.85 1.99 1.89v1.13c0 1.04-.85 1.89-1.99 1.89h-47c-1.04 0-1.98-.85-1.98-1.9v-1.13c0-1.03.94-1.88 1.98-1.88" fill="#dee2e3" fill-rule="evenodd"/><path d="M491.2 140.14h44.18c.38 0 .75.28.75.66v.47c0 .38-.37.66-.75.66H491.2a.65.65 0 01-.66-.66v-.47c0-.38.28-.66.66-.66" fill="#fff" fill-rule="evenodd"/><path d="M515.18 149.01c15.95.1 23.88.19 23.88.19-3.4 1.51-12.08 4.63-13.69 7.93-2.55 5-6.23 7.64-10.19 7.64v-15.76" fill="#c7cdce" fill-rule="evenodd"/><path d="M515.18 143.63c14.82 0 9.81 19.92 0 19.92-9.91 0-14.91-19.92 0-19.92" fill="#92999b" fill-rule="evenodd"/><path d="M515.18 162.6c3.68 0 6.6-2.73 6.6-6.13 0-3.3-2.92-6.04-6.6-6.04-3.59 0-6.51 2.73-6.51 6.04 0 3.4 2.92 6.13 6.51 6.13" fill="#6b7070" fill-rule="evenodd"/><path d="M515.18 162.04c3.3 0 6.04-2.46 6.04-5.57 0-3.02-2.74-5.48-6.04-5.48s-5.95 2.46-5.95 5.48c0 3.11 2.65 5.57 5.95 5.57" fill="#c7cdce" fill-rule="evenodd"/><path d="M515.18 157.5a2.3 2.3 0 002.26-2.26 2.22 2.22 0 00-2.26-2.17c-1.23 0-2.17.94-2.17 2.17s.94 2.27 2.17 2.27" fill="#92999b" fill-rule="evenodd"/><path d="M515.27 153.35c.85 0 2.46 3.78 0 3.78a1.9 1.9 0 01-1.88-1.89 1.9 1.9 0 011.88-1.89" fill="#c7cdce" fill-rule="evenodd"/><path d="M513.67 155.9c.1.28.38.28.38 0-.2-.94.09-1.7.85-2.08.28-.19.28-.28-.1-.19-.47.1-.85.38-1.13.86-.2.47-.2.94 0 1.41" fill="#fff" fill-rule="evenodd"/><path d="M516.12 154.39c.1.1.1.28 0 .38l-1.41 1.32c-.1.19-.28.19-.38 0-.1-.1-.1-.28 0-.38l1.32-1.32c.19-.1.28-.1.47 0" fill="#6b7070" fill-rule="evenodd"/><path d="M516.12 156.09c-.19.19-.28.19-.47 0l-1.32-1.32a.3.3 0 010-.38c.1-.1.28-.1.38 0l1.41 1.32c.1.1.1.28 0 .38M516.88 149.58c3.2.47 3.58-3.78.56-4.82-5.47-1.7-11.23 1.9-11.13 8.3.09 1.33.28 2.46.75 3.6.85 1.98 1.04 1.98.95-.2 0-1.79.66-3.4 1.88-4.62 2.08-1.89 4.25-2.45 6.99-2.26" fill="#6b7070" fill-rule="evenodd"/><path d="M522.54 156.18c-.1 1.14.1 1.14.57.2 1.32-3.22 1.22-6.05-.47-8.4-.85-1.04-2.55.56-1.33 2.35a9.98 9.98 0 011.23 5.85M468.84 140.9h9.44c.94 0 1.7.65 1.7 1.6v1.98c0 .85-.76 1.6-1.7 1.6h-9.44c-.95 0-1.7-.75-1.7-1.6v-1.98c0-.95.75-1.6 1.7-1.6" fill="#dee2e3" fill-rule="evenodd"/><path d="M475.63 127.59h6.04a6.4 6.4 0 016.42 6.32v19.44c0 3.5-2.92 6.42-6.42 6.42h-6.04a6.4 6.4 0 01-6.32-6.42v-19.44c0-3.5 2.83-6.32 6.32-6.32" fill="#8d9397" fill-rule="evenodd"/><path d="M474.97 128.9h4.44a4.74 4.74 0 014.72 4.73v18.3a4.67 4.67 0 01-4.72 4.73h-4.44a4.67 4.67 0 01-4.72-4.72v-18.31a4.74 4.74 0 014.72-4.72" fill="#a2a8aa" fill-rule="evenodd"/><path d="M472.24 154.2a4.13 4.13 0 01-1.33-3.11v-16.52c0-1.7 1.04-3.11 2.46-3.87.94-.57 1.32 1.04 1.32 2.83v17.18c0 2.17-.38 5.38-2.45 3.5" fill="#bbc0c2" fill-rule="evenodd"/><path d="M502.53 137.78a2.3 2.3 0 002.27-2.27 2.21 2.21 0 00-2.27-2.17c-1.22 0-2.26.95-2.26 2.17a2.3 2.3 0 002.26 2.27" fill="#8e9496" fill-rule="evenodd"/><path d="M502.53 133.63c.85 0 2.55 3.77 0 3.77a1.9 1.9 0 010-3.77" fill="#c7cdce" fill-rule="evenodd"/><path d="M500.93 136.18c.19.28.47.28.38 0-.2-.95.09-1.7.94-2.08.28-.19.28-.29-.1-.19-.47.1-.94.38-1.13.85-.28.47-.28.94-.1 1.42" fill="#fff" fill-rule="evenodd"/><path d="M503.38 134.67c.1.09.1.28 0 .37l-1.32 1.42c-.1.1-.28.1-.38 0-.1-.19-.1-.28 0-.47l1.32-1.32c.1-.1.29-.1.38 0" fill="#6b7070" fill-rule="evenodd"/><path d="M503.38 136.46c-.1.1-.28.1-.38 0l-1.32-1.42c-.1-.1-.1-.28 0-.37.1-.1.29-.1.38 0l1.32 1.32c.1.19.1.28 0 .47" fill="#6b7070" fill-rule="evenodd"/><path d="M528.01 137.78a2.3 2.3 0 002.27-2.27 2.21 2.21 0 00-2.27-2.17c-1.22 0-2.26.95-2.26 2.17a2.3 2.3 0 002.26 2.27" fill="#8e9496" fill-rule="evenodd"/><path d="M528.01 133.63c.86 0 2.55 3.77 0 3.77a1.89 1.89 0 010-3.77" fill="#c7cdce" fill-rule="evenodd"/><path d="M526.41 136.18c.19.28.47.28.38 0-.19-.95.1-1.7.94-2.08.28-.19.28-.29-.1-.19-.47.1-.94.38-1.13.85-.18.47-.28.94-.09 1.42" fill="#fff" fill-rule="evenodd"/><path d="M528.87 134.67c.09.09.09.28 0 .37l-1.33 1.42c-.1.1-.28.1-.38 0-.09-.19-.09-.28 0-.47l1.33-1.32c.1-.1.28-.1.38 0" fill="#6b7070" fill-rule="evenodd"/><path d="M528.87 136.46c-.1.1-.29.1-.38 0l-1.33-1.42c-.09-.1-.09-.28 0-.37.1-.1.29-.1.38 0l1.33 1.32c.09.19.09.28 0 .47" fill="#6b7070" fill-rule="evenodd"/><path d="M511.6 164.77c-.57-.1-.86.38-1.05.85l-1.13 5.1h11.6l-1.22-5.1c-.1-.47-.47-.94-.94-.85-3.68.66-3.59.66-7.27 0" fill="#b1b4b6" fill-rule="evenodd"/><path d="M561.62 140.23h-12.28c-1.22 0-2.17.95-2.17 2.08v2.64c0 1.13.95 2.08 2.17 2.08h12.27c1.23 0 2.17-.95 2.17-2.08v-2.64c0-1.13-.94-2.08-2.16-2.08" fill="#c7cdce" fill-rule="evenodd"/><path d="M561.52 140.9H552c-.95 0-1.6.65-1.6 1.6v1.98c0 .85.65 1.6 1.6 1.6h9.53c.85 0 1.6-.75 1.6-1.6v-1.98c0-.95-.75-1.6-1.6-1.6" fill="#dee2e3" fill-rule="evenodd"/><path d="M554.63 127.59h-6.04a6.4 6.4 0 00-6.42 6.32v19.44c0 3.5 2.93 6.42 6.42 6.42h6.04a6.4 6.4 0 006.33-6.42v-19.44c0-3.5-2.84-6.32-6.33-6.32" fill="#8d9397" fill-rule="evenodd"/><path d="M547.74 128.9h4.53a4.8 4.8 0 014.72 4.73v18.3a4.73 4.73 0 01-4.72 4.73h-4.53a4.73 4.73 0 01-4.72-4.72v-18.31a4.8 4.8 0 014.72-4.72" fill="#a2a8aa" fill-rule="evenodd"/><path d="M545 154.2a4.13 4.13 0 01-1.32-3.11v-16.52c0-1.7 1.04-3.11 2.46-3.87 1.03-.57 1.32 1.04 1.32 2.83v17.18c0 2.17-.38 5.38-2.46 3.5" fill="#bbc0c2" fill-rule="evenodd"/><path d="M501.97 367.98h26.42a3.5 3.5 0 003.59-3.5v-31.8a3.5 3.5 0 00-3.59-3.5h-26.42c-1.9 0-3.5 1.51-3.5 3.5v31.8c0 1.99 1.6 3.5 3.5 3.5" fill="#9ea3a5" fill-rule="evenodd"/><path d="M478.09 350.7h74.27v11.14H478.1z" fill="#c7cdce"/><path d="M468.65 359.67h12.36c1.13 0 2.08-.94 2.08-2.17v-2.55a2.1 2.1 0 00-2.08-2.08h-12.36c-1.23 0-2.17.95-2.17 2.08v2.55c0 1.23.94 2.17 2.17 2.17M515.18 350.9c-15.86-.2-23.88-.2-23.88-.2 3.4-1.6 12.18-4.62 13.69-7.93 2.64-5 6.32-7.64 10.19-7.64v15.76" fill="#c7cdce" fill-rule="evenodd"/><path d="M478.09 350.7h74.27v1.42H478.1z" fill="#9ea3a5"/><path d="M491.87 359.3h45.96a2.5 2.5 0 002.45-2.46v-1.41a2.5 2.5 0 00-2.45-2.46h-45.96a2.52 2.52 0 00-2.55 2.46v1.4a2.52 2.52 0 002.55 2.46" fill="#dee2e3" fill-rule="evenodd"/><path d="M491.2 356.46h44.18c.38 0 .75-.38.75-.75v-.38c0-.38-.37-.75-.75-.75H491.2c-.38 0-.66.37-.66.75v.38c0 .37.28.75.66.75" fill="#fff" fill-rule="evenodd"/><path d="M515.18 350.9c15.95-.2 23.88-.2 23.88-.2-3.4-1.6-12.08-4.62-13.69-7.93-2.55-5-6.23-7.64-10.19-7.64v15.76" fill="#c7cdce" fill-rule="evenodd"/><path d="M515.18 356.27c14.82 0 9.81-20 0-20-9.91 0-14.91 20 0 20" fill="#92999b" fill-rule="evenodd"/><path d="M515.18 349.48c3.68 0 6.6-2.74 6.6-6.14 0-3.3-2.92-6.04-6.6-6.04-3.59 0-6.51 2.74-6.51 6.04 0 3.4 2.92 6.14 6.51 6.14" fill="#6b7070" fill-rule="evenodd"/><path d="M515.18 348.91c3.3 0 6.04-2.45 6.04-5.57 0-3.02-2.74-5.47-6.04-5.47s-5.95 2.45-5.95 5.48c0 3.1 2.65 5.56 5.95 5.56" fill="#c7cdce" fill-rule="evenodd"/><path d="M515.18 346.84c1.23 0 2.26-.95 2.26-2.17a2.3 2.3 0 00-2.26-2.27 2.22 2.22 0 00-2.17 2.26c0 1.23.94 2.18 2.17 2.18" fill="#92999b" fill-rule="evenodd"/><path d="M515.27 346.55c.85 0 2.46-3.78 0-3.78a1.9 1.9 0 00-1.88 1.9 1.9 1.9 0 001.88 1.88" fill="#c7cdce" fill-rule="evenodd"/><path d="M513.67 344c.1-.28.38-.28.38 0-.2.95.09 1.7.85 2.08.28.19.28.28-.1.19-.47-.1-.85-.38-1.13-.85a1.83 1.83 0 010-1.42" fill="#fff" fill-rule="evenodd"/><path d="M516.12 345.51c.1-.09.1-.28 0-.37l-1.41-1.42c-.1-.1-.28-.1-.38 0-.1.19-.1.28 0 .47l1.32 1.32c.19.1.28.1.47 0" fill="#6b7070" fill-rule="evenodd"/><path d="M516.12 343.72c-.19-.1-.28-.1-.47 0l-1.32 1.42c-.1.09-.1.28 0 .37.1.1.28.1.38 0l1.41-1.32c.1-.19.1-.28 0-.47M516.88 350.32c3.2-.47 3.58 3.78.56 4.73-5.47 1.7-11.23-1.8-11.13-8.21.09-1.33.28-2.55.75-3.6.85-1.97 1.04-1.97.95.2 0 1.79.66 3.3 1.88 4.62 2.08 1.89 4.25 2.46 6.99 2.26" fill="#6b7070" fill-rule="evenodd"/><path d="M522.54 343.72c-.1-1.13.1-1.23.57-.19 1.32 3.2 1.22 6.04-.47 8.4-.85.95-2.55-.56-1.33-2.36a10.12 10.12 0 001.23-5.85M468.84 359.01h9.44c.94 0 1.7-.75 1.7-1.6v-1.99c0-.85-.76-1.6-1.7-1.6h-9.44c-.95 0-1.7.75-1.7 1.6v1.98c0 .86.75 1.61 1.7 1.61" fill="#dee2e3" fill-rule="evenodd"/><path d="M475.63 372.32h6.04a6.4 6.4 0 006.42-6.32v-19.45c0-3.5-2.92-6.42-6.42-6.42h-6.04a6.4 6.4 0 00-6.32 6.42v19.44c0 3.5 2.83 6.33 6.32 6.33" fill="#8d9397" fill-rule="evenodd"/><path d="M474.97 369.58h4.44a4.68 4.68 0 004.72-4.72v-18.31a4.74 4.74 0 00-4.72-4.72h-4.44a4.74 4.74 0 00-4.72 4.72v18.31a4.68 4.68 0 004.72 4.72" fill="#a2a8aa" fill-rule="evenodd"/><path d="M472.24 344.38a4.12 4.12 0 00-1.33 3.12V364c0 1.7 1.04 3.02 2.46 3.87.94.57 1.32-1.04 1.32-2.92v-17.09c0-2.17-.38-5.38-2.45-3.49" fill="#bbc0c2" fill-rule="evenodd"/><path d="M511.6 335.13c-.57.1-.86-.38-1.05-.85l-1.13-5.1h11.6l-1.22 5.1c-.1.47-.47.95-.94.85-3.68-.66-3.59-.66-7.27 0" fill="#b1b4b6" fill-rule="evenodd"/><path d="M561.62 359.67h-12.28a2.13 2.13 0 01-2.17-2.17v-2.55c0-1.13.95-2.08 2.17-2.08h12.27c1.23 0 2.17.95 2.17 2.08v2.55c0 1.23-.94 2.17-2.16 2.17" fill="#c7cdce" fill-rule="evenodd"/><path d="M561.52 359.01H552c-.95 0-1.6-.75-1.6-1.6v-1.99c0-.85.65-1.6 1.6-1.6h9.53c.85 0 1.6.75 1.6 1.6v1.98c0 .86-.75 1.61-1.6 1.61" fill="#dee2e3" fill-rule="evenodd"/><path d="M554.63 372.32h-6.04a6.4 6.4 0 01-6.42-6.32v-19.45c0-3.5 2.93-6.42 6.42-6.42h6.04a6.4 6.4 0 016.33 6.42v19.44c0 3.5-2.84 6.33-6.33 6.33" fill="#8d9397" fill-rule="evenodd"/><path d="M547.74 369.58h4.53a4.74 4.74 0 004.72-4.72v-18.31a4.8 4.8 0 00-4.72-4.72h-4.53a4.8 4.8 0 00-4.72 4.72v18.31a4.73 4.73 0 004.72 4.72" fill="#a2a8aa" fill-rule="evenodd"/><path d="M545 344.38a4.13 4.13 0 00-1.32 3.12V364c0 1.7 1.04 3.02 2.46 3.87 1.03.57 1.32-1.04 1.32-2.92v-17.09c0-2.17-.38-5.38-2.46-3.49" fill="#bbc0c2" fill-rule="evenodd"/><path d="M502.53 335.7a2.3 2.3 0 002.27-2.26 2.3 2.3 0 00-2.27-2.27 2.3 2.3 0 00-2.26 2.27 2.3 2.3 0 002.26 2.26" fill="#8e9496" fill-rule="evenodd"/><path d="M502.53 331.54c.85 0 2.55 3.78 0 3.78a1.89 1.89 0 010-3.78" fill="#c7cdce" fill-rule="evenodd"/><path d="M500.93 334.1c.19.28.47.28.38 0-.2-.95.09-1.7.94-2.08.28-.2.28-.29-.1-.2-.47.1-.94.39-1.13.86-.28.38-.28.94-.1 1.41" fill="#fff" fill-rule="evenodd"/><path d="M503.38 332.58c.1.1.1.29 0 .38l-1.32 1.32c-.1.1-.28.1-.38 0-.1-.1-.1-.28 0-.37l1.32-1.33c.1-.1.29-.1.38 0" fill="#6b7070" fill-rule="evenodd"/><path d="M503.38 334.28c-.1.1-.28.1-.38 0l-1.32-1.32c-.1-.1-.1-.28 0-.38.1-.1.29-.1.38 0l1.32 1.33c.1.09.1.28 0 .37" fill="#6b7070" fill-rule="evenodd"/><path d="M528.01 335.7a2.3 2.3 0 002.27-2.26 2.3 2.3 0 00-2.27-2.27 2.22 2.22 0 00-2.16 2.27c0 1.22.94 2.26 2.16 2.26" fill="#8e9496" fill-rule="evenodd"/><path d="M528.1 331.54c.86 0 2.46 3.78 0 3.78a1.89 1.89 0 010-3.78" fill="#c7cdce" fill-rule="evenodd"/><path d="M526.5 334.1c.1.28.38.28.38 0-.19-.95.1-1.7.85-2.08.28-.2.28-.29-.1-.2-.47.1-.84.39-1.13.86-.18.38-.18.94 0 1.41" fill="#fff" fill-rule="evenodd"/><path d="M528.96 332.58c.1.1.1.29 0 .38l-1.42 1.32c-.1.1-.28.1-.38 0-.09-.1-.09-.28 0-.37l1.33-1.33c.19-.1.28-.1.47 0" fill="#6b7070" fill-rule="evenodd"/><path d="M528.96 334.28c-.1.1-.28.1-.48 0l-1.32-1.32c-.09-.1-.09-.28 0-.38.1-.1.29-.1.38 0l1.42 1.33c.1.09.1.28 0 .37" fill="#6b7070" fill-rule="evenodd"/><path d="M502.53 366.56c1.23 0 2.27-.94 2.27-2.17a2.3 2.3 0 00-2.27-2.26 2.3 2.3 0 00-2.26 2.26 2.22 2.22 0 002.26 2.17" fill="#8e9496" fill-rule="evenodd"/><path d="M502.53 362.5c.85 0 2.55 3.78 0 3.78a1.89 1.89 0 010-3.78" fill="#c7cdce" fill-rule="evenodd"/><path d="M500.93 365.05c.19.28.47.19.38 0-.2-1.04.09-1.7.94-2.17.28-.19.28-.19-.1-.19-.47.1-.94.47-1.13.94-.28.38-.28.95-.1 1.42" fill="#fff" fill-rule="evenodd"/><path d="M503.38 363.54c.1.1.1.28 0 .38l-1.32 1.32c-.1.1-.28.1-.38 0-.1-.1-.1-.28 0-.38l1.32-1.32c.1-.19.29-.19.38 0" fill="#6b7070" fill-rule="evenodd"/><path d="M503.38 365.24c-.1.1-.28.1-.38 0l-1.32-1.32c-.1-.1-.1-.29 0-.38.1-.19.29-.19.38 0l1.32 1.32c.1.1.1.29 0 .38" fill="#6b7070" fill-rule="evenodd"/><path d="M528.01 366.56c1.23 0 2.27-.94 2.27-2.17a2.3 2.3 0 00-2.27-2.26 2.21 2.21 0 00-2.16 2.26c0 1.23.94 2.17 2.16 2.17" fill="#8e9496" fill-rule="evenodd"/><path d="M528.1 362.5c.86 0 2.46 3.78 0 3.78a1.89 1.89 0 010-3.78" fill="#c7cdce" fill-rule="evenodd"/><path d="M526.5 365.05c.1.28.38.19.38 0-.19-1.04.1-1.7.85-2.17.28-.19.28-.19-.1-.19-.47.1-.84.47-1.13.94-.18.38-.18.95 0 1.42" fill="#fff" fill-rule="evenodd"/><path d="M528.96 363.54c.1.1.1.28 0 .38l-1.42 1.32c-.1.1-.28.1-.38 0-.09-.1-.09-.28 0-.38l1.33-1.32c.19-.19.28-.19.47 0" fill="#6b7070" fill-rule="evenodd"/><path d="M528.96 365.24c-.1.1-.28.1-.48 0l-1.32-1.32c-.09-.1-.09-.29 0-.38.1-.19.29-.19.38 0l1.42 1.32c.1.1.1.29 0 .38" fill="#6b7070" fill-rule="evenodd"/><path d="M685.02 64.26c28.3 0 51.53 23.21 51.53 51.53V384.2a51.66 51.66 0 01-51.53 51.53 51.6 51.6 0 01-51.54-51.53V115.79a51.66 51.66 0 0151.54-51.53" fill="#2c3236" fill-rule="evenodd"/><path d="M680.49 71.33a43.34 43.34 0 0143.22 43.23v261.16a43.34 43.34 0 01-43.22 43.22 43.34 43.34 0 01-43.23-43.22V114.56a43.34 43.34 0 0143.23-43.23" fill="#353c41" fill-rule="evenodd"/><path d="M697.85 137.78a2.22 2.22 0 002.17-2.27c0-1.22-.94-2.17-2.17-2.17-1.32 0-2.26.95-2.26 2.17 0 1.23.94 2.27 2.26 2.27" fill="#252a2c" fill-rule="evenodd"/><path d="M697.85 133.63c.85 0 2.45 3.77 0 3.77a1.9 1.9 0 01-1.89-1.89 1.9 1.9 0 011.9-1.88" fill="#34393e" fill-rule="evenodd"/><path d="M696.25 136.18c.1.28.37.28.37 0-.18-.95.1-1.7.85-2.08.29-.19.29-.29 0-.19-.56.1-.94.38-1.22.85-.2.47-.2.94 0 1.42" fill="#4a4e52" fill-rule="evenodd"/><path d="M698.7 134.67c.1.09.1.28 0 .37l-1.42 1.42c-.09.1-.28.1-.37 0-.1-.19-.1-.28 0-.47l1.42-1.32c.09-.1.28-.1.37 0" fill="#252a2c" fill-rule="evenodd"/><path d="M698.7 136.46c-.1.1-.28.1-.38 0l-1.41-1.42c-.1-.1-.1-.28 0-.37.1-.1.28-.1.37 0l1.42 1.32c.1.19.1.28 0 .47M672.27 137.78a2.3 2.3 0 002.27-2.27 2.21 2.21 0 00-2.27-2.17c-1.22 0-2.17.95-2.17 2.17 0 1.23.95 2.27 2.17 2.27" fill="#252a2c" fill-rule="evenodd"/><path d="M672.37 133.63c.85 0 2.45 3.77 0 3.77a1.89 1.89 0 010-3.77" fill="#34393e" fill-rule="evenodd"/><path d="M670.76 136.18c.1.28.38.28.38 0-.19-.95.1-1.7.85-2.08.28-.19.28-.29-.1-.19-.47.1-.84.38-1.13.85-.18.47-.18.94 0 1.42" fill="#4a4e52" fill-rule="evenodd"/><path d="M673.22 134.67c.1.09.1.28 0 .37l-1.42 1.42c-.1.1-.28.1-.38 0-.1-.19-.1-.28 0-.47l1.32-1.32c.2-.1.3-.1.48 0" fill="#252a2c" fill-rule="evenodd"/><path d="M673.22 136.46c-.1.1-.29.1-.48 0l-1.32-1.42c-.1-.1-.1-.28 0-.37.1-.1.29-.1.38 0l1.42 1.32c.1.19.1.28 0 .47M697.85 168.64c1.23 0 2.17-.94 2.17-2.17a2.22 2.22 0 10-4.43 0c0 1.23.94 2.17 2.26 2.17" fill="#252a2c" fill-rule="evenodd"/><path d="M697.85 164.58c.85 0 2.45 3.78 0 3.78a1.9 1.9 0 01-1.89-1.89 1.9 1.9 0 011.9-1.89" fill="#34393e" fill-rule="evenodd"/><path d="M696.25 167.13c.1.29.37.19.37-.1-.18-.94.1-1.6.85-2.07.29-.19.29-.19 0-.19-.56.1-.94.47-1.22.85a2.08 2.08 0 000 1.51" fill="#4a4e52" fill-rule="evenodd"/><path d="M698.7 165.62c.1.1.1.28 0 .38l-1.42 1.32c-.09.1-.28.1-.37 0-.1-.1-.1-.28 0-.38l1.42-1.32c.09-.19.28-.19.37 0" fill="#252a2c" fill-rule="evenodd"/><path d="M698.7 167.32c-.1.1-.28.1-.38 0l-1.41-1.32a.29.29 0 010-.38c.1-.19.28-.19.37 0l1.42 1.32c.1.1.1.29 0 .38M672.27 168.64c1.23 0 2.27-.94 2.27-2.17a2.3 2.3 0 00-2.27-2.26 2.22 2.22 0 00-2.17 2.26c0 1.23.95 2.17 2.17 2.17" fill="#252a2c" fill-rule="evenodd"/><path d="M672.37 164.58c.85 0 2.45 3.78 0 3.78a1.9 1.9 0 010-3.78" fill="#34393e" fill-rule="evenodd"/><path d="M670.76 167.13c.1.29.38.19.38-.1-.19-.94.1-1.6.85-2.07.28-.19.28-.19-.1-.19-.47.1-.84.47-1.13.85a2.1 2.1 0 000 1.51" fill="#4a4e52" fill-rule="evenodd"/><path d="M673.22 165.62c.1.1.1.28 0 .38l-1.42 1.32c-.1.1-.28.1-.38 0-.1-.1-.1-.28 0-.38l1.32-1.32c.2-.19.3-.19.48 0" fill="#252a2c" fill-rule="evenodd"/><path d="M673.22 167.32c-.1.1-.29.1-.48 0l-1.32-1.32a.29.29 0 010-.38c.1-.19.29-.19.38 0l1.42 1.32c.1.1.1.29 0 .38M697.85 335.7a2.21 2.21 0 002.17-2.26 2.22 2.22 0 10-4.43 0c0 1.22.94 2.26 2.26 2.26" fill="#252a2c" fill-rule="evenodd"/><path d="M697.85 331.54c.85 0 2.45 3.78 0 3.78a1.89 1.89 0 010-3.78" fill="#34393e" fill-rule="evenodd"/><path d="M696.25 334.1c.1.28.37.28.37 0-.18-.95.1-1.7.85-2.08.29-.2.29-.29 0-.2-.56.1-.94.39-1.22.86-.2.38-.2.94 0 1.41" fill="#4a4e52" fill-rule="evenodd"/><path d="M698.7 332.58c.1.1.1.29 0 .38l-1.42 1.32c-.09.1-.28.1-.37 0-.1-.1-.1-.28 0-.37l1.42-1.33c.09-.1.28-.1.37 0" fill="#252a2c" fill-rule="evenodd"/><path d="M698.7 334.28c-.1.1-.28.1-.38 0l-1.41-1.32c-.1-.1-.1-.28 0-.38.1-.1.28-.1.37 0l1.42 1.33c.1.09.1.28 0 .37M672.27 335.7a2.3 2.3 0 002.27-2.26 2.3 2.3 0 00-2.27-2.27 2.22 2.22 0 00-2.17 2.27c0 1.22.95 2.26 2.17 2.26" fill="#252a2c" fill-rule="evenodd"/><path d="M672.37 331.54c.85 0 2.45 3.78 0 3.78a1.89 1.89 0 010-3.78" fill="#34393e" fill-rule="evenodd"/><path d="M670.76 334.1c.1.28.38.28.38 0-.19-.95.1-1.7.85-2.08.28-.2.28-.29-.1-.2-.47.1-.84.39-1.13.86-.18.38-.18.94 0 1.41" fill="#4a4e52" fill-rule="evenodd"/><path d="M673.22 332.58c.1.1.1.29 0 .38l-1.42 1.32c-.1.1-.28.1-.38 0-.1-.1-.1-.28 0-.37l1.32-1.33c.2-.1.3-.1.48 0" fill="#252a2c" fill-rule="evenodd"/><path d="M673.22 334.28c-.1.1-.29.1-.48 0l-1.32-1.32c-.1-.1-.1-.28 0-.38.1-.1.29-.1.38 0l1.42 1.33c.1.09.1.28 0 .37M697.85 366.56a2.22 2.22 0 002.17-2.27c0-1.22-.94-2.16-2.17-2.16-1.32 0-2.26.94-2.26 2.16 0 1.23.94 2.27 2.26 2.27" fill="#252a2c" fill-rule="evenodd"/><path d="M697.85 362.4c.85 0 2.45 3.78 0 3.78a1.9 1.9 0 010-3.77" fill="#34393e" fill-rule="evenodd"/><path d="M696.25 364.96c.1.28.37.28.37 0-.18-.95.1-1.7.85-2.08.29-.19.29-.28 0-.19-.56.1-.94.38-1.22.85-.2.47-.2.94 0 1.42" fill="#4a4e52" fill-rule="evenodd"/><path d="M698.7 363.44c.1.1.1.29 0 .38l-1.42 1.42c-.09.1-.28.1-.37 0-.1-.19-.1-.28 0-.47l1.42-1.33c.09-.09.28-.09.37 0" fill="#252a2c" fill-rule="evenodd"/><path d="M698.7 365.24c-.1.1-.28.1-.38 0l-1.41-1.42c-.1-.1-.1-.28 0-.38.1-.09.28-.09.37 0l1.42 1.33c.1.19.1.28 0 .47M672.27 366.56a2.3 2.3 0 002.27-2.27 2.21 2.21 0 00-2.27-2.16c-1.22 0-2.17.94-2.17 2.16 0 1.23.95 2.27 2.17 2.27" fill="#252a2c" fill-rule="evenodd"/><path d="M672.37 362.4c.85 0 2.45 3.78 0 3.78a1.89 1.89 0 010-3.77" fill="#34393e" fill-rule="evenodd"/><path d="M670.76 364.96c.1.28.38.28.38 0-.19-.95.1-1.7.85-2.08.28-.19.28-.28-.1-.19-.47.1-.84.38-1.13.85-.18.47-.18.94 0 1.42" fill="#4a4e52" fill-rule="evenodd"/><path d="M673.22 363.44c.1.1.1.29 0 .38l-1.42 1.42c-.1.1-.28.1-.38 0-.1-.19-.1-.28 0-.47l1.32-1.33c.2-.09.3-.09.48 0" fill="#252a2c" fill-rule="evenodd"/><path d="M673.22 365.24c-.1.1-.29.1-.48 0l-1.32-1.42c-.1-.1-.1-.28 0-.38.1-.09.29-.09.38 0l1.42 1.33c.1.19.1.28 0 .47" fill="#252a2c" fill-rule="evenodd"/><path d="M805.77 64.26a51.66 51.66 0 0151.54 51.53V384.2a51.6 51.6 0 01-51.54 51.53 51.66 51.66 0 01-51.53-51.53V115.79c0-28.32 23.22-51.53 51.53-51.53" fill="#188dad" fill-rule="evenodd"/><path d="M801.34 71.33a43.34 43.34 0 0143.22 43.23v261.16a43.34 43.34 0 01-43.22 43.22 43.34 43.34 0 01-43.23-43.22V114.56a43.34 43.34 0 0143.23-43.23" fill="#16aed6" fill-rule="evenodd"/><path d="M792.56 131.83h26.43c1.98 0 3.58 1.6 3.58 3.5v31.9c0 1.88-1.6 3.49-3.58 3.49h-26.43c-1.89 0-3.5-1.6-3.5-3.5v-31.9c0-1.88 1.61-3.49 3.5-3.49" fill="#9ea3a5" fill-rule="evenodd"/><path d="M768.68 138.06h74.28v11.14h-74.28z" fill="#c7cdce"/><path d="M759.24 140.23h12.36a2.1 2.1 0 012.08 2.08v2.64a2.1 2.1 0 01-2.08 2.08h-12.36a2.12 2.12 0 01-2.17-2.08v-2.64c0-1.13.95-2.08 2.17-2.08" fill="#c7cdce" fill-rule="evenodd"/><path d="M793.13 168.64c1.22 0 2.26-.94 2.26-2.17a2.3 2.3 0 00-2.26-2.26 2.3 2.3 0 00-2.27 2.26 2.22 2.22 0 002.27 2.17" fill="#8e9496" fill-rule="evenodd"/><path d="M793.13 164.58c.85 0 2.54 3.78 0 3.78a1.9 1.9 0 01-1.9-1.89 1.9 1.9 0 011.9-1.89" fill="#c7cdce" fill-rule="evenodd"/><path d="M791.52 167.13c.19.29.47.19.38-.1-.2-.94.1-1.6.94-2.07.29-.19.29-.19-.1-.19-.47.1-.94.47-1.13.85a1.72 1.72 0 00-.09 1.51" fill="#fff" fill-rule="evenodd"/><path d="M793.98 165.62c.09.1.09.28 0 .38l-1.33 1.32c-.1.1-.28.1-.38 0-.09-.1-.09-.28 0-.38l1.33-1.32c.1-.19.28-.19.38 0" fill="#6b7070" fill-rule="evenodd"/><path d="M793.98 167.32c-.1.1-.29.1-.38 0l-1.33-1.32a.3.3 0 010-.38c.1-.19.29-.19.38 0l1.33 1.32c.09.1.09.29 0 .38" fill="#6b7070" fill-rule="evenodd"/><path d="M818.6 168.64c1.24 0 2.27-.94 2.27-2.17a2.3 2.3 0 00-2.26-2.26 2.3 2.3 0 00-2.27 2.26 2.22 2.22 0 002.27 2.17" fill="#8e9496" fill-rule="evenodd"/><path d="M818.6 164.58c.86 0 2.56 3.78 0 3.78a1.9 1.9 0 010-3.78" fill="#c7cdce" fill-rule="evenodd"/><path d="M817 167.13c.2.29.48.19.38-.1-.19-.94.1-1.6.95-2.07.28-.19.28-.19-.1-.19-.47.1-.95.47-1.13.85a2.09 2.09 0 00-.1 1.51" fill="#fff" fill-rule="evenodd"/><path d="M819.46 165.62c.1.1.1.28 0 .38l-1.32 1.32c-.1.1-.29.1-.38 0-.1-.1-.1-.28 0-.38l1.32-1.32c.1-.19.28-.19.38 0" fill="#6b7070" fill-rule="evenodd"/><path d="M819.46 167.32c-.1.1-.29.1-.38 0l-1.32-1.32a.28.28 0 010-.38c.1-.19.28-.19.38 0l1.32 1.32c.1.1.1.29 0 .38" fill="#6b7070" fill-rule="evenodd"/><path d="M805.77 149.01c-15.85.1-23.88.19-23.88.19 3.4 1.51 12.18 4.63 13.69 7.93 2.64 5 6.32 7.64 10.2 7.64v-15.76" fill="#c7cdce" fill-rule="evenodd"/><path d="M768.68 147.78h74.28v1.42h-74.28z" fill="#9ea3a5"/><path d="M781.9 139.48h47c1.13 0 1.98.85 1.98 1.89v1.13c0 1.04-.85 1.89-1.98 1.89h-47c-1.04 0-1.99-.85-1.99-1.9v-1.13c0-1.03.95-1.88 1.98-1.88" fill="#dee2e3" fill-rule="evenodd"/><path d="M781.8 140.14h44.17c.38 0 .75.28.75.66v.47c0 .38-.37.66-.75.66H781.8a.64.64 0 01-.66-.66v-.47c0-.38.28-.66.66-.66" fill="#fff" fill-rule="evenodd"/><path d="M805.77 149.01c15.95.1 23.88.19 23.88.19-3.4 1.51-12.08 4.63-13.68 7.93-2.56 5-6.23 7.64-10.2 7.64v-15.76" fill="#c7cdce" fill-rule="evenodd"/><path d="M805.77 143.63c14.82 0 9.82 19.92 0 19.92-9.9 0-14.9-19.92 0-19.92" fill="#92999b" fill-rule="evenodd"/><path d="M805.77 162.6c3.68 0 6.6-2.73 6.6-6.13 0-3.3-2.92-6.04-6.6-6.04-3.59 0-6.51 2.73-6.51 6.04 0 3.4 2.92 6.13 6.51 6.13" fill="#6b7070" fill-rule="evenodd"/><path d="M805.77 162.04c3.3 0 6.04-2.46 6.04-5.57 0-3.02-2.74-5.48-6.04-5.48s-5.95 2.46-5.95 5.48c0 3.11 2.65 5.57 5.95 5.57" fill="#c7cdce" fill-rule="evenodd"/><path d="M805.77 157.5a2.3 2.3 0 002.27-2.26 2.22 2.22 0 00-2.27-2.17c-1.23 0-2.17.94-2.17 2.17s.94 2.27 2.17 2.27" fill="#92999b" fill-rule="evenodd"/><path d="M805.87 153.35c.84 0 2.45 3.78 0 3.78a1.9 1.9 0 010-3.78" fill="#c7cdce" fill-rule="evenodd"/><path d="M804.26 155.9c.1.28.38.28.38 0-.19-.94.1-1.7.85-2.08.28-.19.28-.28-.1-.19-.47.1-.85.38-1.13.86-.19.47-.19.94 0 1.41" fill="#fff" fill-rule="evenodd"/><path d="M806.71 154.39c.1.1.1.28 0 .38l-1.4 1.32c-.1.19-.3.19-.39 0-.1-.1-.1-.28 0-.38l1.32-1.32c.2-.1.29-.1.47 0" fill="#6b7070" fill-rule="evenodd"/><path d="M806.71 156.09c-.18.19-.28.19-.47 0l-1.32-1.32a.29.29 0 010-.38c.1-.1.29-.1.38 0l1.41 1.32c.1.1.1.28 0 .38M807.47 149.58c3.21.47 3.59-3.78.57-4.82-5.48-1.7-11.23 1.9-11.14 8.3.1 1.33.28 2.46.76 3.6.84 1.98 1.03 1.98.94-.2 0-1.79.66-3.4 1.89-4.62 2.07-1.89 4.24-2.45 6.98-2.26" fill="#6b7070" fill-rule="evenodd"/><path d="M813.13 156.18c-.1 1.14.1 1.14.57.2 1.32-3.22 1.23-6.05-.47-8.4-.85-1.04-2.55.56-1.32 2.35a10 10 0 011.22 5.85M759.43 140.9h9.44c.94 0 1.7.65 1.7 1.6v1.98c0 .85-.76 1.6-1.7 1.6h-9.44c-.94 0-1.7-.75-1.7-1.6v-1.98c0-.95.76-1.6 1.7-1.6" fill="#dee2e3" fill-rule="evenodd"/><path d="M766.23 127.59h6.04a6.4 6.4 0 016.41 6.32v19.44c0 3.5-2.92 6.42-6.41 6.42h-6.04a6.4 6.4 0 01-6.33-6.42v-19.44c0-3.5 2.83-6.32 6.33-6.32" fill="#2c3236" fill-rule="evenodd"/><path d="M765.57 128.9H770a4.73 4.73 0 014.72 4.73v18.3a4.67 4.67 0 01-4.72 4.73h-4.43a4.68 4.68 0 01-4.73-4.72v-18.31a4.74 4.74 0 014.73-4.72" fill="#353c41" fill-rule="evenodd"/><path d="M762.83 154.2a4.13 4.13 0 01-1.32-3.11v-16.52c0-1.7 1.04-3.11 2.45-3.87.95-.57 1.32 1.04 1.32 2.83v17.18c0 2.17-.37 5.38-2.45 3.5" fill="#4a4e52" fill-rule="evenodd"/><path d="M793.13 137.78a2.3 2.3 0 002.26-2.27 2.21 2.21 0 00-2.26-2.17c-1.23 0-2.27.95-2.27 2.17a2.3 2.3 0 002.27 2.27" fill="#8e9496" fill-rule="evenodd"/><path d="M793.13 133.63c.85 0 2.54 3.77 0 3.77a1.9 1.9 0 01-1.9-1.89 1.9 1.9 0 011.9-1.88" fill="#c7cdce" fill-rule="evenodd"/><path d="M791.52 136.18c.19.28.47.28.38 0-.2-.95.1-1.7.94-2.08.29-.19.29-.29-.1-.19-.47.1-.94.38-1.13.85-.28.47-.28.94-.09 1.42" fill="#fff" fill-rule="evenodd"/><path d="M793.98 134.67c.09.09.09.28 0 .37l-1.33 1.42c-.1.1-.28.1-.38 0-.09-.19-.09-.28 0-.47l1.33-1.32c.1-.1.28-.1.38 0" fill="#6b7070" fill-rule="evenodd"/><path d="M793.98 136.46c-.1.1-.29.1-.38 0l-1.33-1.42c-.09-.1-.09-.28 0-.37.1-.1.29-.1.38 0l1.33 1.32c.09.19.09.28 0 .47" fill="#6b7070" fill-rule="evenodd"/><path d="M818.6 137.78a2.3 2.3 0 002.27-2.27 2.22 2.22 0 00-2.26-2.17c-1.23 0-2.27.95-2.27 2.17a2.3 2.3 0 002.27 2.27" fill="#8e9496" fill-rule="evenodd"/><path d="M818.6 133.63c.86 0 2.56 3.77 0 3.77a1.89 1.89 0 010-3.77" fill="#c7cdce" fill-rule="evenodd"/><path d="M817 136.18c.2.28.48.28.38 0-.19-.95.1-1.7.95-2.08.28-.19.28-.29-.1-.19-.47.1-.95.38-1.13.85-.2.47-.29.94-.1 1.42" fill="#fff" fill-rule="evenodd"/><path d="M819.46 134.67c.1.09.1.28 0 .37l-1.32 1.42c-.1.1-.29.1-.38 0-.1-.19-.1-.28 0-.47l1.32-1.32c.1-.1.28-.1.38 0" fill="#6b7070" fill-rule="evenodd"/><path d="M819.46 136.46c-.1.1-.29.1-.38 0l-1.32-1.42c-.1-.1-.1-.28 0-.37.1-.1.28-.1.38 0l1.32 1.32c.1.19.1.28 0 .47" fill="#6b7070" fill-rule="evenodd"/><path d="M802.18 164.77c-.56-.1-.84.38-1.03.85l-1.13 5.1h11.6l-1.23-5.1c-.09-.47-.47-.94-.94-.85-3.68.66-3.58.66-7.27 0" fill="#b1b4b6" fill-rule="evenodd"/><path d="M852.2 140.23h-12.26c-1.23 0-2.17.95-2.17 2.08v2.64c0 1.13.94 2.08 2.17 2.08h12.27c1.22 0 2.17-.95 2.17-2.08v-2.64c0-1.13-.95-2.08-2.17-2.08" fill="#c7cdce" fill-rule="evenodd"/><path d="M852.11 140.9h-9.53c-.94 0-1.6.65-1.6 1.6v1.98c0 .85.66 1.6 1.6 1.6h9.53c.85 0 1.6-.75 1.6-1.6v-1.98c0-.95-.75-1.6-1.6-1.6" fill="#dee2e3" fill-rule="evenodd"/><path d="M845.22 127.59h-6.04a6.4 6.4 0 00-6.41 6.32v19.44c0 3.5 2.92 6.42 6.41 6.42h6.04a6.4 6.4 0 006.33-6.42v-19.44c0-3.5-2.84-6.32-6.33-6.32" fill="#2c3236" fill-rule="evenodd"/><path d="M838.33 128.9h4.53a4.8 4.8 0 014.72 4.73v18.3a4.73 4.73 0 01-4.72 4.73h-4.53a4.73 4.73 0 01-4.72-4.72v-18.31a4.8 4.8 0 014.72-4.72" fill="#353c41" fill-rule="evenodd"/><path d="M835.6 154.2a4.12 4.12 0 01-1.32-3.11v-16.52c0-1.7 1.03-3.11 2.45-3.87 1.04-.57 1.32 1.04 1.32 2.83v17.18c0 2.17-.38 5.38-2.45 3.5" fill="#4a4e52" fill-rule="evenodd"/><path d="M792.56 367.98h26.43a3.5 3.5 0 003.58-3.5v-31.8a3.5 3.5 0 00-3.58-3.5h-26.43c-1.89 0-3.5 1.51-3.5 3.5v31.8c0 1.99 1.61 3.5 3.5 3.5" fill="#9ea3a5" fill-rule="evenodd"/><path d="M768.68 350.7h74.28v11.14h-74.28z" fill="#c7cdce"/><path d="M759.24 359.67h12.36c1.14 0 2.08-.94 2.08-2.17v-2.55a2.1 2.1 0 00-2.08-2.08h-12.36c-1.22 0-2.17.95-2.17 2.08v2.55c0 1.23.95 2.17 2.17 2.17M805.77 350.9c-15.85-.2-23.88-.2-23.88-.2 3.4-1.6 12.18-4.62 13.69-7.93 2.64-5 6.32-7.64 10.2-7.64v15.76" fill="#c7cdce" fill-rule="evenodd"/><path d="M768.68 350.7h74.28v1.42h-74.28z" fill="#9ea3a5"/><path d="M782.46 359.3h45.97a2.5 2.5 0 002.45-2.46v-1.41a2.5 2.5 0 00-2.45-2.46h-45.97a2.52 2.52 0 00-2.55 2.46v1.4a2.52 2.52 0 002.55 2.46" fill="#dee2e3" fill-rule="evenodd"/><path d="M781.8 356.46h44.17c.38 0 .75-.38.75-.75v-.38c0-.38-.37-.75-.75-.75H781.8c-.38 0-.66.37-.66.75v.38c0 .37.28.75.66.75" fill="#fff" fill-rule="evenodd"/><path d="M805.77 350.9c15.95-.2 23.88-.2 23.88-.2-3.4-1.6-12.08-4.62-13.68-7.93-2.56-5-6.23-7.64-10.2-7.64v15.76" fill="#c7cdce" fill-rule="evenodd"/><path d="M805.77 356.27c14.82 0 9.82-20 0-20-9.9 0-14.9 20 0 20" fill="#92999b" fill-rule="evenodd"/><path d="M805.77 349.48c3.68 0 6.6-2.74 6.6-6.14 0-3.3-2.92-6.04-6.6-6.04-3.59 0-6.51 2.74-6.51 6.04 0 3.4 2.92 6.14 6.51 6.14" fill="#6b7070" fill-rule="evenodd"/><path d="M805.77 348.91c3.3 0 6.04-2.45 6.04-5.57 0-3.02-2.74-5.47-6.04-5.47s-5.95 2.45-5.95 5.48c0 3.1 2.65 5.56 5.95 5.56" fill="#c7cdce" fill-rule="evenodd"/><path d="M805.77 346.84c1.23 0 2.27-.95 2.27-2.17a2.3 2.3 0 00-2.27-2.27 2.22 2.22 0 00-2.17 2.26c0 1.23.94 2.18 2.17 2.18" fill="#92999b" fill-rule="evenodd"/><path d="M805.87 346.55c.84 0 2.45-3.78 0-3.78a1.9 1.9 0 000 3.77" fill="#c7cdce" fill-rule="evenodd"/><path d="M804.26 344c.1-.28.38-.28.38 0-.19.95.1 1.7.85 2.08.28.19.28.28-.1.19-.47-.1-.85-.38-1.13-.85a1.83 1.83 0 010-1.42" fill="#fff" fill-rule="evenodd"/><path d="M806.71 345.51c.1-.09.1-.28 0-.37l-1.4-1.42c-.1-.1-.3-.1-.39 0-.1.19-.1.28 0 .47l1.32 1.32c.2.1.29.1.47 0" fill="#6b7070" fill-rule="evenodd"/><path d="M806.71 343.72c-.18-.1-.28-.1-.47 0l-1.32 1.42c-.1.09-.1.28 0 .37.1.1.29.1.38 0l1.41-1.32c.1-.19.1-.28 0-.47M807.47 350.32c3.21-.47 3.59 3.78.57 4.73-5.48 1.7-11.23-1.8-11.14-8.21.1-1.33.28-2.55.76-3.6.84-1.97 1.03-1.97.94.2 0 1.79.66 3.3 1.89 4.62 2.07 1.89 4.24 2.46 6.98 2.26" fill="#6b7070" fill-rule="evenodd"/><path d="M813.13 343.72c-.1-1.13.1-1.23.57-.19 1.32 3.2 1.23 6.04-.47 8.4-.85.95-2.55-.56-1.32-2.36a10.14 10.14 0 001.22-5.85M759.43 359.01h9.44c.94 0 1.7-.75 1.7-1.6v-1.99c0-.85-.76-1.6-1.7-1.6h-9.44c-.94 0-1.7.75-1.7 1.6v1.98c0 .86.76 1.61 1.7 1.61" fill="#dee2e3" fill-rule="evenodd"/><path d="M766.23 372.32h6.04a6.4 6.4 0 006.41-6.32v-19.45c0-3.5-2.92-6.42-6.41-6.42h-6.04a6.4 6.4 0 00-6.33 6.42v19.44c0 3.5 2.83 6.33 6.33 6.33" fill="#2c3236" fill-rule="evenodd"/><path d="M765.57 369.58H770a4.67 4.67 0 004.72-4.72v-18.31a4.73 4.73 0 00-4.72-4.72h-4.43a4.74 4.74 0 00-4.73 4.72v18.31a4.68 4.68 0 004.73 4.72" fill="#353c41" fill-rule="evenodd"/><path d="M762.83 344.38a4.12 4.12 0 00-1.32 3.12V364c0 1.7 1.04 3.02 2.45 3.87.95.57 1.32-1.04 1.32-2.92v-17.09c0-2.17-.37-5.38-2.45-3.49" fill="#4a4e52" fill-rule="evenodd"/><path d="M802.18 335.13c-.56.1-.84-.38-1.03-.85l-1.13-5.1h11.6l-1.23 5.1c-.09.47-.47.95-.94.85-3.68-.66-3.58-.66-7.27 0" fill="#b1b4b6" fill-rule="evenodd"/><path d="M852.2 359.67h-12.26a2.13 2.13 0 01-2.17-2.17v-2.55c0-1.13.94-2.08 2.17-2.08h12.27c1.22 0 2.17.95 2.17 2.08v2.55c0 1.23-.95 2.17-2.17 2.17" fill="#c7cdce" fill-rule="evenodd"/><path d="M852.11 359.01h-9.53c-.94 0-1.6-.75-1.6-1.6v-1.99c0-.85.66-1.6 1.6-1.6h9.53c.85 0 1.6.75 1.6 1.6v1.98c0 .86-.75 1.61-1.6 1.61" fill="#dee2e3" fill-rule="evenodd"/><path d="M845.22 372.32h-6.04a6.4 6.4 0 01-6.41-6.32v-19.45c0-3.5 2.92-6.42 6.41-6.42h6.04a6.4 6.4 0 016.33 6.42v19.44c0 3.5-2.84 6.33-6.33 6.33" fill="#2c3236" fill-rule="evenodd"/><path d="M838.33 369.58h4.53a4.73 4.73 0 004.72-4.72v-18.31a4.8 4.8 0 00-4.72-4.72h-4.53a4.8 4.8 0 00-4.72 4.72v18.31a4.74 4.74 0 004.72 4.72" fill="#353c41" fill-rule="evenodd"/><path d="M835.6 344.38a4.12 4.12 0 00-1.32 3.12V364c0 1.7 1.03 3.02 2.45 3.87 1.04.57 1.32-1.04 1.32-2.92v-17.09c0-2.17-.38-5.38-2.45-3.49" fill="#4a4e52" fill-rule="evenodd"/><path d="M793.13 335.7a2.3 2.3 0 002.26-2.26 2.3 2.3 0 00-2.26-2.27 2.3 2.3 0 00-2.27 2.27 2.3 2.3 0 002.27 2.26" fill="#8e9496" fill-rule="evenodd"/><path d="M793.13 331.54c.85 0 2.54 3.78 0 3.78a1.9 1.9 0 01-1.9-1.88 1.9 1.9 0 011.9-1.9" fill="#c7cdce" fill-rule="evenodd"/><path d="M791.52 334.1c.19.28.47.28.38 0-.2-.95.1-1.7.94-2.08.29-.2.29-.29-.1-.2-.47.1-.94.39-1.13.86-.28.38-.28.94-.09 1.41" fill="#fff" fill-rule="evenodd"/><path d="M793.98 332.58c.09.1.09.29 0 .38l-1.33 1.32c-.1.1-.28.1-.38 0-.09-.1-.09-.28 0-.37l1.33-1.33c.1-.1.28-.1.38 0" fill="#6b7070" fill-rule="evenodd"/><path d="M793.98 334.28c-.1.1-.29.1-.38 0l-1.33-1.32c-.09-.1-.09-.28 0-.38.1-.1.29-.1.38 0l1.33 1.33c.09.09.09.28 0 .37" fill="#6b7070" fill-rule="evenodd"/><path d="M818.6 335.7a2.3 2.3 0 002.27-2.26 2.3 2.3 0 00-2.26-2.27 2.22 2.22 0 00-2.17 2.27c0 1.22.94 2.26 2.17 2.26" fill="#8e9496" fill-rule="evenodd"/><path d="M818.7 331.54c.85 0 2.46 3.78 0 3.78a1.9 1.9 0 01-1.89-1.88 1.9 1.9 0 011.9-1.9" fill="#c7cdce" fill-rule="evenodd"/><path d="M817.1 334.1c.1.28.38.28.38 0-.2-.95.09-1.7.85-2.08.28-.2.28-.29-.1-.2-.47.1-.85.39-1.13.86-.2.38-.2.94 0 1.41" fill="#fff" fill-rule="evenodd"/><path d="M819.55 332.58c.1.1.1.29 0 .38l-1.41 1.32c-.1.1-.29.1-.38 0-.1-.1-.1-.28 0-.37l1.32-1.33c.19-.1.28-.1.47 0" fill="#6b7070" fill-rule="evenodd"/><path d="M819.55 334.28c-.1.1-.28.1-.47 0l-1.32-1.32c-.1-.1-.1-.28 0-.38.1-.1.28-.1.38 0l1.41 1.33c.1.09.1.28 0 .37" fill="#6b7070" fill-rule="evenodd"/><path d="M793.13 366.56c1.22 0 2.26-.94 2.26-2.17a2.3 2.3 0 00-2.26-2.26 2.3 2.3 0 00-2.27 2.26 2.22 2.22 0 002.27 2.17" fill="#8e9496" fill-rule="evenodd"/><path d="M793.13 362.5c.85 0 2.54 3.78 0 3.78a1.9 1.9 0 01-1.9-1.9 1.9 1.9 0 011.9-1.88" fill="#c7cdce" fill-rule="evenodd"/><path d="M791.52 365.05c.19.28.47.19.38 0-.2-1.04.1-1.7.94-2.17.29-.19.29-.19-.1-.19-.47.1-.94.47-1.13.94-.28.38-.28.95-.09 1.42" fill="#fff" fill-rule="evenodd"/><path d="M793.98 363.54c.09.1.09.28 0 .38l-1.33 1.32c-.1.1-.28.1-.38 0-.09-.1-.09-.28 0-.38l1.33-1.32c.1-.19.28-.19.38 0" fill="#6b7070" fill-rule="evenodd"/><path d="M793.98 365.24c-.1.1-.29.1-.38 0l-1.33-1.32c-.09-.1-.09-.29 0-.38.1-.19.29-.19.38 0l1.33 1.32c.09.1.09.29 0 .38" fill="#6b7070" fill-rule="evenodd"/><path d="M818.6 366.56c1.24 0 2.27-.94 2.27-2.17a2.3 2.3 0 00-2.26-2.26 2.21 2.21 0 00-2.17 2.26c0 1.23.94 2.17 2.17 2.17" fill="#8e9496" fill-rule="evenodd"/><path d="M818.7 362.5c.85 0 2.46 3.78 0 3.78a1.9 1.9 0 01-1.89-1.9 1.9 1.9 0 011.9-1.88" fill="#c7cdce" fill-rule="evenodd"/><path d="M817.1 365.05c.1.28.38.19.38 0-.2-1.04.09-1.7.85-2.17.28-.19.28-.19-.1-.19-.47.1-.85.47-1.13.94-.2.38-.2.95 0 1.42" fill="#fff" fill-rule="evenodd"/><path d="M819.55 363.54c.1.1.1.28 0 .38l-1.41 1.32c-.1.1-.29.1-.38 0a.28.28 0 010-.38l1.32-1.32c.19-.19.28-.19.47 0" fill="#6b7070" fill-rule="evenodd"/><path d="M819.55 365.24c-.1.1-.28.1-.47 0l-1.32-1.32c-.1-.1-.1-.29 0-.38.1-.19.28-.19.38 0l1.41 1.32c.1.1.1.29 0 .38" fill="#6b7070" fill-rule="evenodd"/></svg>